<?xml version="1.0" encoding="UTF-8"?> <svg xmlns="http://www.w3.org/2000/svg" width="356" height="87" viewBox="0 0 356 87" fill="none"> <rect width="355.836" height="86.553" fill="#A77DFF"></rect> <path d="M25.467 38H39.8561V33.1936H31.6942V16.3862H25.467V38ZM41.7664 38H48.0238V16.3862H41.7664V38ZM58.9838 38.3627C64.5459 38.3627 67.6897 35.1282 67.6897 31.1682C67.6897 26.4827 64.8784 25.062 59.407 24.4574C56.7166 24.0946 56.0515 23.5505 56.0515 22.3413C56.0515 21.2531 56.8979 20.4974 58.5605 20.4974C60.2534 20.4974 61.13 21.2833 61.3416 22.825H67.0851C66.6922 18.2604 63.7599 16.0839 58.5605 16.0839C53.3914 16.0839 50.1871 18.9255 50.1871 22.825C50.1871 27.178 52.2427 28.9917 58.3489 29.7172C60.9486 30.1102 61.7648 30.473 61.7648 31.803C61.7648 33.0727 60.7673 33.9493 58.9838 33.9493C56.4143 33.9493 55.719 32.6797 55.5679 31.138H49.6732C49.8546 35.8235 52.9379 38.3627 58.9838 38.3627ZM72.9777 38H79.2049V21.1624H84.7973V16.3862H67.3853V21.1624H72.9777V38ZM86.3137 38H101.73V33.2238H92.4804V29.294H99.4633V24.8806H92.4804V21.1624H101.247V16.3862H86.3137V38ZM103.614 38H109.055V24.4271L116.945 38H122.93V16.3862H117.519V28.5685L110.597 16.3862H103.614V38ZM130.657 38H145.046V33.1936H136.884V16.3862L130.657 16.3862V38ZM146.956 38H153.214V16.3862H146.956V38ZM160.395 38H166.622V21.1624H172.215V16.3862H154.803V21.1624H160.395V38ZM178.02 38H184.247V21.1624H189.84V16.3862H172.428V21.1624H178.02V38ZM191.356 38H205.745V33.1936H197.583V16.3862H191.356V38ZM207.535 38H222.951V33.2238H213.701V29.294H220.684V24.8806L213.701 24.8806V21.1624L222.468 21.1624V16.3862H207.535V38ZM229.589 38H239.323C244.673 38 247.182 35.8537 247.182 31.9844V31.8635C247.182 28.8708 245.52 27.2687 242.859 26.8152C245.278 26.1804 246.517 24.5783 246.517 22.16V22.039C246.517 18.6836 244.341 16.3862 239.232 16.3862H229.589V38ZM235.635 33.8586V28.7499H238.023C240.199 28.7499 241.076 29.5963 241.076 31.2287V31.3496C241.076 32.9517 240.169 33.8586 238.204 33.8586H235.635ZM235.635 24.9713V20.4974H237.993C239.867 20.4974 240.653 21.1624 240.653 22.6436V22.7645C240.653 24.3062 239.927 24.9713 237.993 24.9713H235.635ZM249.017 38H255.275V16.3862H249.017V38ZM268.502 38.3627C275.485 38.3627 279.082 34.2214 279.082 28.7197V26.0595H268.925V30.3823H272.976C272.855 32.1053 271.706 33.647 268.683 33.647C264.935 33.647 263.635 30.9264 263.635 27.4198V27.178C263.635 23.2784 265.479 20.9206 268.532 20.9206C270.83 20.9206 272.129 21.9786 272.432 24.0039H278.568C278.145 18.3813 273.611 16.0537 268.502 16.0537C262.003 16.0537 257.166 20.4974 257.166 27.0873V27.3291C257.166 33.7982 261.156 38.3627 268.502 38.3627ZM35.7751 62.4959C32.7825 62.4959 30.7873 60.2287 30.7873 56.2989V56.0571C30.7873 52.1273 32.6918 49.9206 35.7449 49.9206C38.7981 49.9206 40.7327 52.1878 40.7327 56.0268V56.2687C40.7327 60.138 38.8283 62.4959 35.7751 62.4959ZM35.6542 67.3627C42.6371 67.3627 47.2017 62.8284 47.2017 56.178V55.9362C47.2017 49.2253 42.3349 45.0839 35.7449 45.0839C29.2759 45.0839 24.3183 49.4974 24.3183 56.0873V56.3291C24.3183 62.8284 28.6713 67.3627 35.6542 67.3627ZM49.0256 67H54.4669V53.4271L62.3567 67H68.342V45.3862H62.931V57.5685L56.0085 45.3862H49.0256V67ZM74.376 67H80.1498L81.2985 62.9795H88.4628L89.6115 67H96.1712L89.3092 45.3862H81.2985L74.376 67ZM84.8957 50.4042L87.2536 58.7172H82.5076L84.8957 50.4042ZM97.4429 67H103.61V59.7148H105.937C111.288 59.7148 114.341 57.2662 114.341 52.7319V52.611C114.341 48.0161 111.59 45.3862 105.665 45.3862H97.4429V67ZM103.61 55.4827V50.0415H105.423C107.358 50.0415 108.446 50.7972 108.446 52.6412V52.7621C108.446 54.5456 107.388 55.4827 105.393 55.4827H103.61ZM115.954 67H122.12V59.7148H124.448C129.798 59.7148 132.852 57.2662 132.852 52.7319V52.611C132.852 48.0161 130.101 45.3862 124.176 45.3862H115.954V67ZM122.12 55.4827V50.0415H123.934C125.869 50.0415 126.957 50.7972 126.957 52.6412V52.7621C126.957 54.5456 125.899 55.4827 123.904 55.4827H122.12ZM134.464 67H148.853V62.1936H140.691V45.3862H134.464V67ZM150.643 67H166.059V62.2238H156.809V58.294H163.792V53.8806H156.809V50.1624H165.576V45.3862H150.643V67ZM172.697 67H178.229V53.5481L183.458 67H185.514L190.804 53.5481V67H196.971V45.3862H189.051L184.909 56.9035L180.768 45.3862H172.697V67ZM209.406 67.3627C215.362 67.3627 219.05 64.4305 219.05 58.1429V45.3862H212.792V57.8708C212.792 61.1053 211.976 62.4959 209.406 62.4959C206.777 62.4959 206.021 61.0146 206.021 57.9615V45.3862H199.824V58.2336C199.824 64.2794 203.3 67.3627 209.406 67.3627ZM229.623 67.3627C235.185 67.3627 238.329 64.1282 238.329 60.1682C238.329 55.4827 235.518 54.062 230.047 53.4574C227.356 53.0946 226.691 52.5505 226.691 51.3413C226.691 50.2531 227.538 49.4974 229.2 49.4974C230.893 49.4974 231.77 50.2833 231.981 51.825H237.725C237.332 47.2604 234.4 45.0839 229.2 45.0839C224.031 45.0839 220.827 47.9255 220.827 51.825C220.827 56.178 222.882 57.9917 228.989 58.7172C231.588 59.1102 232.404 59.473 232.404 60.803C232.404 62.0727 231.407 62.9493 229.623 62.9493C227.054 62.9493 226.359 61.6797 226.207 60.138H220.313C220.494 64.8235 223.578 67.3627 229.623 67.3627ZM240.187 67H246.445V45.3862H240.187V67ZM259.642 67.3627C265.234 67.3627 269.285 64.4608 269.708 58.8684H263.541C263.239 61.2565 261.697 62.4052 259.521 62.4052C256.558 62.4052 254.896 60.1985 254.896 56.2989V56.0571C254.896 52.1273 256.649 49.9508 259.43 49.9508C261.606 49.9508 262.816 51.16 263.057 53.3667H269.436C268.922 47.6534 265.022 45.0537 259.4 45.0537C253.082 45.0537 248.366 49.4369 248.366 56.0873V56.3291C248.366 62.9493 252.084 67.3627 259.642 67.3627Z" fill="black"></path> <path d="M325.745 38.8914H323.764V46.8189H325.745V38.8914Z" fill="black"></path> <path d="M319.801 44.8367H317.82V46.8178H319.801V44.8367Z" fill="black"></path> <path d="M321.779 34.9265H319.796V36.9076H321.779V34.9265Z" fill="black"></path> <path d="M323.76 36.9077H321.778V38.8904H323.76V36.9077Z" fill="black"></path> <path d="M327.725 32.9443H325.743V36.9081H327.725V32.9443Z" fill="black"></path> <path d="M325.743 30.9634H323.762V32.946H325.743V30.9634Z" fill="black"></path> <path d="M323.763 46.8186H321.782V48.8013H323.763V46.8186Z" fill="black"></path> <path d="M321.786 48.8H319.803V50.7812H321.786V48.8Z" fill="black"></path> <path d="M329.708 36.9084H327.727V48.7997H329.708V36.9084Z" fill="black"></path> <path d="M298 48.7999H305.928V50.781H307.91V52.7621H309.891V54.7448H311.874V56.7259H313.855V58.7085H315.836V27H313.855V28.9826H311.874V30.9638H309.891V32.9464H307.91V34.9275H305.928V36.9086H298V48.7999ZM307.909 36.9086H309.89V34.9275H311.872V32.9464H313.853V34.9275H311.872V36.9086H309.89V38.8913H307.909V36.9086Z" fill="black"></path> <path d="M327.729 48.8H325.748V52.7638H327.729V48.8Z" fill="black"></path> <path d="M319.804 38.8918H317.823V40.873H319.804V38.8918Z" fill="black"></path> <path d="M321.784 40.8728H319.801V44.8366H321.784V40.8728Z" fill="black"></path> </svg> 