<?xml version="1.0" encoding="UTF-8"?> <svg xmlns="http://www.w3.org/2000/svg" width="59" height="1261" viewBox="0 0 59 1261" fill="none"> <path d="M0 0H59V1261H0V0Z" fill="#FD4E22"></path> <path d="M21.7604 1231.63V1236.75H38.0938V1231.63H21.7604Z" fill="black"></path> <path d="M21.7604 1226.06V1230.06H27.1829V1226.06H21.7604Z" fill="black"></path> <path d="M38.0938 1211.03L21.7604 1203.13L21.7604 1208.44L33.7689 1214.08L21.7604 1220.1V1225.89L38.0938 1217.4V1211.03Z" fill="black"></path> <path d="M21.7604 1202.58H38.0938L38.0937 1185.15H34.2958V1197.54H31.6175V1185.66H27.8854V1197.54H25.4705L25.4705 1185.37H21.7604V1202.58Z" fill="black"></path> <path d="M21.7604 1177.16H38.0937V1172.11H27.2707L38.0937 1161.02V1155.97H21.7603V1161.02H32.0346L21.7604 1171.45V1177.16Z" fill="black"></path> <path d="M21.7603 1153.91H38.0937V1136.47H34.2958V1148.86H31.6175V1136.98H27.8854V1148.86H25.4705L25.4705 1136.69H21.7603V1153.91Z" fill="black"></path> <path d="M38.0937 1121.44L21.7603 1113.54L21.7603 1118.85L33.7689 1124.5L21.7603 1130.51V1136.31L38.0937 1127.81V1121.44Z" fill="black"></path> <path d="M21.7603 1113H38.0937L38.0937 1095.57H34.2958V1107.95H31.6175V1096.07H27.8854V1107.95H25.4705L25.4705 1095.79H21.7603V1113Z" fill="black"></path> <path d="M25.4705 1088.77V1081.02C25.4705 1079.53 26.195 1078.96 27.0511 1078.96H27.0731C27.9732 1078.96 28.6757 1079.55 28.6757 1081.02V1088.77H25.4705ZM32.298 1088.77V1082.1C32.298 1079.57 33.1762 1078.69 35.1739 1078.69H37.0619C37.6547 1078.69 37.8962 1078.61 38.0937 1078.45V1073.25H37.984C37.7205 1073.4 37.3034 1073.56 35.9862 1073.56H33.5933C31.4857 1073.56 30.3222 1074.98 29.8392 1076.65C29.488 1075.58 28.6098 1073.62 26.2608 1073.62H25.9974C23.6483 1073.62 21.7603 1075.27 21.7603 1080.71V1093.89H38.0937V1088.77H32.298Z" fill="black"></path> <path d="M38.0937 1065.67V1060.56H31.6614V1049.58H38.0937V1044.46H21.7603V1049.58H27.7097V1060.56H21.7603V1065.67H38.0937Z" fill="black"></path> <path d="M31.4199 1029.32V1035.51L25.2949 1032.48L31.4199 1029.32ZM38.0937 1025.89V1020.38L21.7603 1029.12L21.7603 1035.75L38.0937 1044V1038.8L35.1081 1037.33V1027.43L38.0937 1025.89Z" fill="black"></path> <path d="M38.0937 1019.92L38.0937 1009.08C38.0937 999.525 33.6591 997.572 30.1466 997.572H29.488C25.8217 997.572 21.7603 999.635 21.7603 1009.1V1019.92H38.0937ZM25.6242 1014.81L25.6242 1009.49C25.6242 1003.61 28.1488 1002.93 29.8173 1002.93H29.949C31.6175 1002.93 34.1641 1003.7 34.1641 1009.49V1014.81H25.6242Z" fill="black"></path> <path d="M31.4199 976.863V983.054L25.2949 980.025L31.4199 976.863ZM38.0937 973.439V967.928L21.7603 976.666V983.296L38.0937 991.55V986.347L35.1081 984.876V974.975L38.0937 973.439Z" fill="black"></path> <path d="M38.3791 949.98C38.3791 940.65 33.8128 939.025 31.7492 939.025H31.5077V944.448C31.8809 944.579 34.4056 945.106 34.4056 950.397C34.4056 955.161 31.8589 956.456 29.927 956.456H29.6636C27.6219 956.456 25.4266 955.337 25.4266 950.441C25.4266 945.26 27.7097 944.601 28.1488 944.47V939.047H27.9073C25.9974 939.047 21.4749 940.518 21.4749 949.98V950.88C21.4749 960.54 26.5901 961.813 29.5538 961.813H30.1905C33.0883 961.813 38.3791 960.342 38.3791 950.88V949.98Z" fill="black"></path> <path d="M38.0937 937.689V932.574H31.6614V921.597H38.0937V916.482H21.7603V921.597H27.7097V932.574H21.7603V937.689H38.0937Z" fill="black"></path> <path d="M31.4199 901.332V907.523L25.2949 904.494L31.4199 901.332ZM38.0937 897.908V892.397L21.7603 901.135V907.765L38.0937 916.019V910.816L35.1081 909.345L35.1081 899.444L38.0937 897.908Z" fill="black"></path> <path d="M21.7603 891.937H38.0937V886.888H27.2707L38.0937 875.802V870.752H21.7603V875.802H32.0346L21.7603 886.229V891.937Z" fill="black"></path> <path d="M38.3791 857.512C38.3791 848.182 33.8128 846.557 31.7492 846.557H31.5077V851.98C31.8809 852.112 34.4055 852.638 34.4055 857.929C34.4055 862.693 31.8589 863.988 29.927 863.988H29.6636C27.6219 863.988 25.4266 862.869 25.4266 857.973C25.4266 852.792 27.7097 852.133 28.1488 852.002V846.579H27.9073C25.9974 846.579 21.4749 848.05 21.4749 857.512V858.412C21.4749 868.072 26.5901 869.345 29.5538 869.345H30.1905C33.0883 869.345 38.3791 867.874 38.3791 858.412V857.512Z" fill="black"></path> <path d="M21.7603 845.221H38.0937V827.79H34.2958L34.2958 840.172H31.6175V828.295H27.8854V840.172H25.4705L25.4705 828.01H21.7603V845.221Z" fill="black"></path> <path d="M38.0937 813.405V808.246H25.6241V801.199H21.7603L21.7603 820.43H25.6241V813.405H38.0937Z" fill="black"></path> <path d="M21.4749 789.599C21.4749 799.94 26.634 801.103 29.5538 801.103H30.2124C33.0883 801.103 38.3791 799.94 38.3791 789.599V788.655C38.3791 778.359 33.0883 777.174 30.2124 777.174H29.5538C26.634 777.174 21.4749 778.381 21.4749 788.655V789.599ZM30.0148 782.53C31.9028 782.53 34.4055 783.65 34.4055 789.138C34.4055 794.671 31.837 795.746 29.9709 795.746H29.7075C27.8415 795.746 25.4266 794.759 25.4266 789.138C25.4266 783.606 27.8415 782.53 29.7075 782.53H30.0148Z" fill="black"></path> <path d="M38.0937 763.076L38.0937 757.917H25.6241L25.6241 750.87H21.7603L21.7603 770.101H25.6241V763.076H38.0937Z" fill="black"></path> <path d="M21.7603 749.451H38.0937V732.02H34.2958L34.2958 744.401H31.6174V732.524H27.8854V744.401H25.4705V732.239H21.7603V749.451Z" fill="black"></path> <path d="M21.7603 730.337H38.0937V713.872H34.0323V725.222H21.7603V730.337Z" fill="black"></path> <path d="M21.7603 712.425H38.0937V695.96H34.0323V707.31H21.7603V712.425Z" fill="black"></path> <path d="M38.0937 681.195V676.08H31.7711L21.7603 667.584V673.357L27.7756 678.516L21.7603 683.588V689.932L31.7711 681.195H38.0937Z" fill="black"></path> <path d="M21.4749 658.175C21.4749 668.515 26.634 669.679 29.5538 669.679H30.2124C33.0883 669.679 38.3791 668.515 38.3791 658.175V657.231C38.3791 646.935 33.0883 645.75 30.2124 645.75H29.5538C26.634 645.75 21.4749 646.957 21.4749 657.231V658.175ZM30.0148 651.106C31.9028 651.106 34.4055 652.226 34.4055 657.714C34.4055 663.247 31.837 664.322 29.9709 664.322H29.7075C27.8414 664.322 25.4266 663.334 25.4266 657.714C25.4266 652.182 27.8414 651.106 29.7075 651.106H30.0148Z" fill="black"></path> <path d="M38.3352 633.575C38.3352 625.211 32.759 623.542 29.6855 623.542H21.7603V628.658H29.3782C31.4857 628.658 34.0982 629.624 34.0982 634.014C34.0982 638.471 31.4857 639.415 29.3782 639.415H21.7603V644.552H29.6855C32.759 644.552 38.3352 643.125 38.3352 634.365V633.575Z" fill="black"></path> <path d="M38.0937 615.368V610.253H31.6614V599.276H38.0937V594.161H21.7603L21.7603 599.276H27.7097L27.7097 610.253H21.7603V615.368H38.0937Z" fill="black"></path> <path d="M21.4749 581.251C21.4749 591.591 26.634 592.754 29.5538 592.754H30.2124C33.0883 592.754 38.3791 591.591 38.3791 581.251V580.307C38.3791 570.01 33.0883 568.825 30.2124 568.825H29.5538C26.634 568.825 21.4749 570.032 21.4749 580.307V581.251ZM30.0148 574.182C31.9028 574.182 34.4055 575.301 34.4055 580.79C34.4055 586.322 31.837 587.398 29.9709 587.398H29.7075C27.8414 587.398 25.4266 586.41 25.4266 580.79C25.4266 575.257 27.8414 574.182 29.7075 574.182H30.0148Z" fill="black"></path> <path d="M38.0937 557.464L27.1609 553.753L38.0937 549.824V544.665L21.7603 538.057V543.084L32.6712 547.211L21.7603 550.943V556.388L33.0005 560.032L21.7603 564.247V569.823L38.0937 563.106V557.464Z" fill="black"></path> <path d="M21.7603 531.197H38.0937V526.104H31.6174V514.6H27.8853V526.104H25.4705V514.315H21.7603V531.197Z" fill="black"></path> <path d="M21.7603 512.598H38.0937L38.0937 495.167H34.2958V507.549H31.6174L31.6174 495.672H27.8853L27.8853 507.549H25.4705V495.387H21.7603L21.7603 512.598Z" fill="black"></path> <path d="M21.7603 493.485H38.0937V476.054H34.2958L34.2958 488.436H31.6174V476.559H27.8853V488.436H25.4705V476.273H21.7603V493.485Z" fill="black"></path> <path d="M21.7603 474.372H38.0937V457.907H34.0323V469.257H21.7603V474.372Z" fill="black"></path> <path d="M38.3791 446.336C38.3791 438.125 35.613 436.764 32.9127 436.764H32.6053C29.3562 436.764 27.8634 439.245 27.7536 445.392L27.7097 448.136C27.6439 451.473 27.0072 451.912 26.3047 451.912C25.6022 451.912 24.8997 451.627 24.8997 447.675V447.324C24.8997 443.043 26.2388 442.714 26.8535 442.604L26.8535 437.291H26.634C24.1752 437.291 21.4749 439.047 21.4749 446.775V448.29C21.4749 455.732 24.0215 457.181 26.4584 457.181H26.6559C29.2026 457.181 31.2662 455.315 31.4418 449.212L31.5077 446.402C31.6174 442.626 32.2102 442.121 33.1542 442.121C34.0323 442.121 34.8885 442.604 34.8885 446.907V447.214C34.8885 451.429 33.2859 452 32.298 452.066L32.298 457.4H32.5395C34.6909 457.4 38.3791 456.413 38.3791 447.851V446.336Z" fill="black"></path> <path d="M21.7603 429.145H38.0937V412.68H34.0323V424.03H21.7603V429.145Z" fill="black"></path> <path d="M21.7603 406.117V411.232H38.0937L38.0937 406.117H21.7603Z" fill="black"></path> <path d="M38.0937 398.945H30.388L38.0937 390.318V383.644L29.2245 393.479L21.7603 384.083V390.581L28.5659 398.945H21.7603V404.061H38.0937V398.945Z" fill="black"></path> <path d="M21.7603 383.254H38.0937V365.823H34.2958V378.204H31.6174L31.6174 366.327H27.8853L27.8853 378.204H25.4705V366.042H21.7603L21.7603 383.254Z" fill="black"></path> <path d="M38.0937 350.823V345.708H31.7711L21.7603 337.212V342.986L27.7756 348.145L21.7603 353.216V359.56L31.7711 350.823H38.0937Z" fill="black"></path> <path d="M21.4749 327.804C21.4749 338.144 26.634 339.307 29.5538 339.307H30.2124C33.0883 339.307 38.3791 338.144 38.3791 327.804V326.86C38.3791 316.563 33.0883 315.378 30.2124 315.378H29.5538C26.634 315.378 21.4749 316.585 21.4749 326.86V327.804ZM30.0148 320.734C31.9028 320.734 34.4055 321.854 34.4055 327.342C34.4055 332.875 31.837 333.951 29.9709 333.951H29.7075C27.8414 333.951 25.4265 332.963 25.4265 327.342C25.4265 321.81 27.8414 320.734 29.7075 320.734H30.0148Z" fill="black"></path> <path d="M38.3352 303.203C38.3352 294.839 32.759 293.171 29.6855 293.171H21.7603V298.286H29.3782C31.4857 298.286 34.0982 299.252 34.0982 303.643C34.0982 308.099 31.4857 309.043 29.3782 309.043H21.7603V314.18H29.6855C32.759 314.18 38.3352 312.753 38.3352 303.994V303.203Z" fill="black"></path> <path d="M21.7603 287.798L21.7603 291.793H27.1828L27.1828 287.798H21.7603Z" fill="black"></path> <path d="M25.4705 281.103V273.354C25.4705 271.861 26.1949 271.29 27.0511 271.29H27.0731C27.9731 271.29 28.6757 271.883 28.6757 273.354V281.103H25.4705ZM32.298 281.103L32.298 274.429C32.298 271.905 33.1761 271.026 35.1739 271.026H37.0619C37.6546 271.026 37.8961 270.939 38.0937 270.785V265.582H37.9839C37.7205 265.736 37.3034 265.889 35.9862 265.889H33.5932C31.4857 265.889 30.3222 267.316 29.8392 268.985C29.4879 267.909 28.6098 265.955 26.2608 265.955H25.9973C23.6483 265.955 21.7603 267.602 21.7603 273.046V286.218H38.0937V281.103H32.298Z" fill="black"></path> <path d="M21.7603 264.318H38.0937V246.887H34.2958V259.269H31.6174V247.392H27.8853V259.269H25.4704V247.106H21.7603V264.318Z" fill="black"></path> <path d="M31.4198 225.806L31.4198 231.997L25.2948 228.968L31.4198 225.806ZM38.0937 222.382V216.871L21.7603 225.609V232.239L38.0937 240.493V235.29L35.108 233.819V223.918L38.0937 222.382Z" fill="black"></path> <path d="M32.6492 197.847C32.6492 192.007 30.2124 190.229 27.2926 190.229H27.0731C24.0874 190.229 21.7603 191.964 21.7603 197.847L21.7603 210.097H38.0937V204.982H32.6492V197.847ZM25.4704 204.982V197.935C25.4704 196.288 26.0851 195.564 27.2048 195.564H27.2706C28.3903 195.564 28.983 196.332 28.983 197.935V204.982H25.4704Z" fill="black"></path> <path d="M31.4198 178.521L31.4198 184.712L25.2948 181.683L31.4198 178.521ZM38.0937 175.097V169.586L21.7603 178.324V184.954L38.0937 193.208V188.005L35.108 186.534V176.633L38.0937 175.097Z" fill="black"></path> <path d="M25.4704 164.011V156.262C25.4704 154.769 26.1949 154.198 27.0511 154.198H27.073C27.9731 154.198 28.6757 154.791 28.6757 156.262V164.011H25.4704ZM32.298 164.011V157.337C32.298 154.813 33.1761 153.935 35.1739 153.935H37.0619C37.6546 153.935 37.8961 153.847 38.0937 153.693V148.49H37.9839C37.7205 148.644 37.3034 148.798 35.9862 148.798H33.5932C31.4857 148.798 30.3222 150.225 29.8392 151.893C29.4879 150.817 28.6098 148.863 26.2608 148.863H25.9973C23.6483 148.863 21.7603 150.51 21.7603 155.954L21.7603 169.126H38.0937V164.011H32.298Z" fill="black"></path> <path d="M38.0937 141.052V135.893H25.6241V128.846H21.7603V148.077H25.6241L25.6241 141.052H38.0937Z" fill="black"></path> <path d="M21.4749 110.268C21.4749 120.608 26.634 121.771 29.5538 121.771H30.2124C33.0883 121.771 38.3791 120.608 38.3791 110.268V109.324C38.3791 99.0275 33.0883 97.842 30.2124 97.842H29.5538C26.634 97.842 21.4749 99.0494 21.4749 109.324V110.268ZM30.0148 103.199C31.9028 103.199 34.4055 104.318 34.4055 109.807C34.4055 115.339 31.837 116.415 29.9709 116.415H29.7075C27.8414 116.415 25.4265 115.427 25.4265 109.807C25.4265 104.274 27.8414 103.199 29.7075 103.199H30.0148Z" fill="black"></path> <path d="M21.7603 96.4466H38.0937V91.3534H31.6174V79.8498H27.8853V91.3534H25.4704V79.5644H21.7603V96.4466Z" fill="black"></path> <path d="M38.0937 71.5338V66.6162H26.7877L38.0937 60.1839L38.0937 57.4397L26.7877 51.0073H38.0937V45.958H21.7603V52.9612L31.9248 58.6252L21.7603 64.2672L21.7603 71.5338H38.0937Z" fill="black"></path> <path d="M21.7603 43.8878H38.0937V26.4567H34.2957V38.8385H31.6174V26.9617H27.8853V38.8385H25.4704V26.6763H21.7603L21.7603 43.8878Z" fill="black"></path> </svg> 