<?xml version="1.0" encoding="UTF-8"?> <svg xmlns="http://www.w3.org/2000/svg" width="344" height="84" viewBox="0 0 344 84" fill="none"> <rect width="343.238" height="83.9887" fill="#45E054"></rect> <path d="M23.3251 39.6809H37.7141V34.8745H29.5523V18.0671H23.3251V39.6809ZM39.6244 39.6809H45.8819V18.0671H39.6244V39.6809ZM56.8418 40.0437C62.4039 40.0437 65.5478 36.8091 65.5478 32.8491C65.5478 28.1636 62.7365 26.7429 57.265 26.1383C54.5746 25.7755 53.9096 25.2314 53.9096 24.0222C53.9096 22.934 54.756 22.1783 56.4186 22.1783C58.1114 22.1783 58.9881 22.9642 59.1997 24.5059H64.9432C64.5502 19.9413 61.618 17.7648 56.4186 17.7648C51.2494 17.7648 48.0451 20.6064 48.0451 24.5059C48.0451 28.8589 50.1007 30.6726 56.207 31.3981C58.8067 31.7911 59.6229 32.1539 59.6229 33.4839C59.6229 34.7536 58.6253 35.6302 56.8418 35.6302C54.2723 35.6302 53.577 34.3606 53.4259 32.8189H47.5312C47.7126 37.5044 50.796 40.0437 56.8418 40.0437ZM70.8357 39.6809H77.0629V22.8433H82.6553V18.0671H65.2433V22.8433H70.8357V39.6809ZM84.1717 39.6809H99.5885V34.9047H90.3384V30.9749H97.3214V26.5615H90.3384V22.8433H99.1049V18.0671H84.1717V39.6809ZM101.472 39.6809H106.913V26.1081L114.803 39.6809H120.788V18.0671H115.377V30.2494L108.455 18.0671H101.472V39.6809ZM128.515 39.6809H142.904V34.8745H134.742V18.0671H128.515V39.6809ZM144.815 39.6809H151.072V18.0671H144.815V39.6809ZM158.253 39.6809H164.48V22.8433H170.073V18.0671H152.661V22.8433H158.253V39.6809ZM175.878 39.6809H182.105V22.8433H187.698V18.0671H170.286V22.8433H175.878V39.6809ZM189.214 39.6809H203.603V34.8745H195.441V18.0671H189.214V39.6809ZM205.393 39.6809H220.809V34.9047H211.559V30.9749H218.542V26.5615H211.559V22.8433H220.326V18.0671H205.393V39.6809ZM227.447 39.6809H237.181C242.531 39.6809 245.04 37.5346 245.04 33.6653V33.5444C245.04 30.5517 243.378 28.9496 240.717 28.4962C243.136 27.8613 244.375 26.2592 244.375 23.8409V23.72C244.375 20.3645 242.199 18.0671 237.09 18.0671H227.447V39.6809ZM233.493 35.5395V30.4308H235.881C238.057 30.4308 238.934 31.2772 238.934 32.9096V33.0305C238.934 34.6327 238.027 35.5395 236.062 35.5395H233.493ZM233.493 26.6522V22.1783H235.851C237.725 22.1783 238.511 22.8433 238.511 24.3245V24.4455C238.511 25.9871 237.785 26.6522 235.851 26.6522H233.493ZM246.875 39.6809H253.133V18.0671H246.875V39.6809ZM266.36 40.0437C273.343 40.0437 276.94 35.9023 276.94 30.4006V27.7404H266.783V32.0632H270.834C270.713 33.7862 269.564 35.3279 266.541 35.3279C262.793 35.3279 261.493 32.6073 261.493 29.1007V28.8589C261.493 24.9593 263.337 22.6015 266.39 22.6015C268.688 22.6015 269.987 23.6595 270.29 25.6848H276.426C276.003 20.0622 271.469 17.7346 266.36 17.7346C259.861 17.7346 255.024 22.1783 255.024 28.7682V29.01C255.024 35.4791 259.014 40.0437 266.36 40.0437ZM33.6332 64.1768C30.6405 64.1768 28.6454 61.9096 28.6454 57.9798V57.738C28.6454 53.8082 30.5498 51.6015 33.6029 51.6015C36.6561 51.6015 38.5907 53.8687 38.5907 57.7078V57.9496C38.5907 61.8189 36.6863 64.1768 33.6332 64.1768ZM33.5123 69.0437C40.4952 69.0437 45.0598 64.5093 45.0598 57.8589V57.6171C45.0598 50.9062 40.1929 46.7648 33.6029 46.7648C27.1339 46.7648 22.1764 51.1783 22.1764 57.7682V58.01C22.1764 64.5093 26.5293 69.0437 33.5123 69.0437ZM46.8837 68.6809H52.3249V55.1081L60.2147 68.6809H66.2V47.0671H60.789V59.2494L53.8666 47.0671H46.8837V68.6809ZM81.8469 69.0437C87.4091 69.0437 90.5529 65.8091 90.5529 61.8491C90.5529 57.1636 87.7416 55.7429 82.2701 55.1383C79.5797 54.7755 78.9147 54.2314 78.9147 53.0222C78.9147 51.934 79.7611 51.1783 81.4237 51.1783C83.1165 51.1783 83.9932 51.9642 84.2048 53.5059H89.9483C89.5553 48.9413 86.6231 46.7648 81.4237 46.7648C76.2545 46.7648 73.0502 49.6064 73.0502 53.5059C73.0502 57.8589 75.1058 59.6726 81.2121 60.3981C83.8118 60.7911 84.628 61.1539 84.628 62.4839C84.628 63.7536 83.6304 64.6302 81.8469 64.6302C79.2774 64.6302 78.5822 63.3606 78.431 61.8189H72.5363C72.7177 66.5044 75.8011 69.0437 81.8469 69.0437ZM92.2899 68.6809H98.4566V61.3957H100.784C106.135 61.3957 109.188 58.9471 109.188 54.4128V54.2919C109.188 49.697 106.437 47.0671 100.512 47.0671H92.2899V68.6809ZM98.4566 57.1636V51.7224H100.27C102.205 51.7224 103.293 52.4781 103.293 54.3221V54.443C103.293 56.2265 102.235 57.1636 100.24 57.1636H98.4566ZM121.256 64.1768C118.263 64.1768 116.268 61.9096 116.268 57.9798V57.738C116.268 53.8082 118.173 51.6015 121.226 51.6015C124.279 51.6015 126.214 53.8687 126.214 57.7078V57.9496C126.214 61.8189 124.309 64.1768 121.256 64.1768ZM121.135 69.0437C128.118 69.0437 132.683 64.5093 132.683 57.8589V57.6171C132.683 50.9062 127.816 46.7648 121.226 46.7648C114.757 46.7648 109.799 51.1783 109.799 57.7682V58.01C109.799 64.5093 114.152 69.0437 121.135 69.0437ZM137.881 68.6809H144.108V51.8433H149.7V47.0671H132.288V51.8433H137.881V68.6809ZM151.337 68.6809H157.595V47.0671H151.337V68.6809ZM160.635 68.6809H166.862V61.033H173.543V56.4684H166.862V51.8735H175.235V47.0671H160.635V68.6809ZM182.278 68.6809H188.505V59.4308L195.216 47.0671H189.291L185.634 54.3523L181.976 47.0671H175.235L182.278 59.4308V68.6809Z" fill="black"></path> <path d="M321.692 39.0623H319.711V46.9898H321.692V39.0623Z" fill="black"></path> <path d="M315.751 45.0085H313.77V46.9897H315.751V45.0085Z" fill="black"></path> <path d="M317.728 35.0981H315.745V37.0793H317.728V35.0981Z" fill="black"></path> <path d="M319.708 37.0791H317.727V39.0617H319.708V37.0791Z" fill="black"></path> <path d="M323.675 33.1157H321.694V37.0795H323.675V33.1157Z" fill="black"></path> <path d="M321.694 31.1353H319.712V33.1179H321.694V31.1353Z" fill="black"></path> <path d="M319.71 46.9897H317.729V48.9724H319.71V46.9897Z" fill="black"></path> <path d="M317.73 48.9702H315.747V50.9513H317.73V48.9702Z" fill="black"></path> <path d="M325.656 37.0798H323.674V48.9711H325.656V37.0798Z" fill="black"></path> <path d="M293.948 48.971H301.875V50.9522H303.858V52.9333H305.839V54.9159H307.822V56.897H309.803V58.8797H311.784V27.1711H309.803V29.1538H307.822V31.1349H305.839V33.1175H303.858V35.0987H301.875V37.0798H293.948V48.971ZM303.857 37.0798H305.838V35.0987H307.82V33.1175H309.801V35.0987H307.82V37.0798H305.838V39.0624H303.857V37.0798Z" fill="black"></path> <path d="M323.676 48.9712H321.695V52.9349H323.676V48.9712Z" fill="black"></path> <path d="M315.748 39.0627H313.767V41.0439H315.748V39.0627Z" fill="black"></path> <path d="M317.731 41.0437H315.748V45.0075H317.731V41.0437Z" fill="black"></path> </svg> 