<?xml version="1.0" encoding="UTF-8"?> <svg xmlns="http://www.w3.org/2000/svg" width="1002" height="1024" viewBox="0 0 1002 1024" fill="none"> <path d="M1.95696 523H74.3089V233.592L100.745 523H132.051L157.792 233.592V523H231.535V5.40563H133.443L118.137 256.55L102.832 5.40563H1.95696V523Z" fill="#FC258D"></path> <path d="M358.575 528.565C421.883 528.565 451.102 488.215 451.102 442.995V5.40563H361.358V432.56C361.358 441.604 357.879 445.778 351.618 445.778C345.357 445.778 342.574 441.604 342.574 432.56V5.40563H252.134V442.995C252.134 488.911 277.179 528.565 344.661 528.565H358.575Z" fill="#FC258D"></path> <path d="M576.788 527.87C640.792 527.87 667.924 491.694 667.924 436.039V333.076C667.924 287.161 654.706 264.203 619.921 234.984L575.397 196.025C564.266 185.59 561.483 180.72 561.483 166.806V78.4532C561.483 70.8006 564.266 67.3221 570.527 67.3221C576.788 67.3221 579.571 70.8006 579.571 78.4532V188.372H664.445V74.279C664.445 32.5376 644.27 0.535767 580.962 0.535767H560.787C497.479 0.535767 472.435 33.2333 472.435 81.236V173.067C472.435 212.026 484.957 240.549 514.872 265.594L560.092 304.553C573.31 316.38 575.397 323.337 575.397 340.033V440.908C575.397 450.648 571.918 455.518 565.657 455.518C559.396 455.518 556.613 450.648 556.613 441.604V312.206H470.347V447.865C470.347 501.434 498.871 527.87 556.613 527.87H576.788Z" fill="#FC258D"></path> <path d="M775.62 5.40563H687.267V523H775.62V5.40563Z" fill="#FC258D"></path> <path d="M896.295 452.039C890.034 452.039 887.251 447.17 887.251 437.43V87.4972C887.251 78.4532 890.034 74.279 896.295 74.279C903.948 74.279 905.339 79.1489 905.339 87.4972V221.766H991.605V84.7144C991.605 33.929 965.169 0.535767 903.948 0.535767H889.338C823.248 0.535767 796.811 40.1902 796.811 94.4541V431.169C796.811 492.39 823.248 527.87 890.034 527.87H903.948C965.864 527.87 991.605 486.128 991.605 439.517V286.465H905.339V437.43C905.339 445.778 903.948 452.039 896.295 452.039Z" fill="#FC258D"></path> <path d="M45.6395 1019H148.983L189.953 564.044H114.739L98.84 874.075L83.5525 564.044H0.38855L45.6395 1019Z" fill="#FC258D"></path> <path d="M278.998 564.044H201.338V1019H278.998V564.044Z" fill="#FC258D"></path> <path d="M297.625 1019H409.529C443.773 1019 468.233 998.209 468.233 949.901V629.475C468.233 581.166 441.939 564.044 408.306 564.044H297.625V1019ZM373.451 626.417H380.789C388.127 626.417 389.961 631.309 389.961 640.482V939.505C389.961 949.9 388.127 954.793 380.789 954.793H373.451V626.417Z" fill="#FC258D"></path> <path d="M486.473 564.044V1019H619.169V948.066H562.299V816.594H608.773V744.437H562.299V633.755H617.334V564.044H486.473Z" fill="#FC258D"></path> <path d="M811.452 649.654C811.452 595.231 786.992 559.764 728.899 559.764H716.669C658.577 559.764 634.117 593.396 634.117 649.654V935.225C634.117 991.482 662.857 1023.28 716.669 1023.28H729.511C780.265 1023.28 811.452 992.094 811.452 935.225V649.654ZM731.957 941.951C731.957 949.901 728.899 954.181 722.784 954.181C717.281 954.181 714.223 949.901 714.223 941.951V641.093C714.223 631.921 717.281 627.64 722.784 627.64C728.899 627.64 731.957 631.921 731.957 641.093V941.951Z" fill="#FC258D"></path> <path d="M921.87 1023.28C978.128 1023.28 1001.98 991.482 1001.98 942.562V852.061C1001.98 811.702 990.358 791.522 959.783 765.839L920.647 731.595C910.863 722.423 908.417 718.142 908.417 705.912V628.252C908.417 621.525 910.863 618.468 916.367 618.468C921.87 618.468 924.316 621.525 924.316 628.252V724.869H998.919V624.583C998.919 587.893 981.186 559.764 925.539 559.764H907.806C852.159 559.764 830.146 588.504 830.146 630.698V711.416C830.146 745.66 841.152 770.731 867.447 792.745L907.194 826.989C918.813 837.385 920.647 843.5 920.647 858.176V946.843C920.647 955.404 917.59 959.685 912.086 959.685C906.583 959.685 904.137 955.404 904.137 947.455V833.716H828.311V952.958C828.311 1000.04 853.382 1023.28 904.137 1023.28H921.87Z" fill="#FC258D"></path> </svg> 