<?xml version="1.0" encoding="UTF-8"?> <svg xmlns="http://www.w3.org/2000/svg" width="383" height="84" viewBox="0 0 383 84" fill="none"> <rect width="382.5" height="83.9887" fill="#FF1A8D"></rect> <path d="M23.602 37H37.9911V32.1936H29.8292V15.3862H23.602V37ZM39.9014 37H46.1588V15.3862H39.9014V37ZM57.1188 37.3627C62.6809 37.3627 65.8247 34.1282 65.8247 30.1682C65.8247 25.4827 63.0134 24.062 57.542 23.4574C54.8516 23.0946 54.1865 22.5505 54.1865 21.3413C54.1865 20.2531 55.033 19.4974 56.6956 19.4974C58.3884 19.4974 59.265 20.2833 59.4766 21.825H65.2202C64.8272 17.2604 61.895 15.0839 56.6956 15.0839C51.5264 15.0839 48.3221 17.9255 48.3221 21.825C48.3221 26.178 50.3777 27.9917 56.484 28.7172C59.0837 29.1102 59.8998 29.473 59.8998 30.803C59.8998 32.0727 58.9023 32.9493 57.1188 32.9493C54.5493 32.9493 53.854 31.6797 53.7029 30.138H47.8082C47.9896 34.8235 51.073 37.3627 57.1188 37.3627ZM71.1127 37H77.3399V20.1624H82.9323V15.3862H65.5203V20.1624H71.1127V37ZM84.4487 37H99.8655V32.2238H90.6154V28.294H97.5983V23.8806H90.6154V20.1624H99.3818V15.3862H84.4487V37ZM101.749 37H107.19V23.4271L115.08 37H121.065V15.3862H115.654V27.5685L108.732 15.3862H101.749V37ZM128.792 37H143.181V32.1936H135.019V15.3862H128.792V37ZM145.092 37H151.349V15.3862H145.092V37ZM158.53 37H164.757V20.1624H170.35V15.3862H152.938V20.1624H158.53V37ZM176.155 37H182.382V20.1624H187.975V15.3862H170.563V20.1624H176.155V37ZM189.491 37H203.88V32.1936H195.718V15.3862H189.491V37ZM205.67 37H221.086V32.2238H211.836V28.294H218.819V23.8806H211.836V20.1624H220.603V15.3862H205.67V37ZM227.724 37H237.458C242.808 37 245.317 34.8537 245.317 30.9844V30.8635C245.317 27.8708 243.655 26.2687 240.994 25.8152C243.413 25.1804 244.652 23.5783 244.652 21.16V21.039C244.652 17.6836 242.476 15.3862 237.367 15.3862H227.724V37ZM233.77 32.8586V27.7499H236.158C238.334 27.7499 239.211 28.5963 239.211 30.2287V30.3496C239.211 31.9517 238.304 32.8586 236.339 32.8586H233.77ZM233.77 23.9713V19.4974H236.128C238.002 19.4974 238.788 20.1624 238.788 21.6436V21.7645C238.788 23.3062 238.062 23.9713 236.128 23.9713H233.77ZM247.152 37H253.41V15.3862H247.152V37ZM266.637 37.3627C273.62 37.3627 277.217 33.2214 277.217 27.7197V25.0595H267.06V29.3823H271.111C270.99 31.1053 269.841 32.647 266.818 32.647C263.07 32.647 261.77 29.9264 261.77 26.4198V26.178C261.77 22.2784 263.614 19.9206 266.667 19.9206C268.965 19.9206 270.264 20.9786 270.567 23.0039H276.703C276.28 17.3813 271.746 15.0537 266.637 15.0537C260.138 15.0537 255.301 19.4974 255.301 26.0873V26.3291C255.301 32.7982 259.291 37.3627 266.637 37.3627ZM33.9102 61.4959C30.9175 61.4959 28.9224 59.2287 28.9224 55.2989V55.0571C28.9224 51.1273 30.8268 48.9206 33.8799 48.9206C36.9331 48.9206 38.8677 51.1878 38.8677 55.0268V55.2687C38.8677 59.138 36.9633 61.4959 33.9102 61.4959ZM33.7892 66.3627C40.7722 66.3627 45.3367 61.8284 45.3367 55.178V54.9362C45.3367 48.2253 40.4699 44.0839 33.8799 44.0839C27.4109 44.0839 22.4533 48.4974 22.4533 55.0873V55.3291C22.4533 61.8284 26.8063 66.3627 33.7892 66.3627ZM47.1606 66H52.6019V52.4271L60.4917 66H66.477V44.3862H61.066V56.5685L54.1436 44.3862H47.1606V66ZM79.4033 66H85.6305V56.7499L92.3413 44.3862H86.4164L82.7587 51.6714L79.101 44.3862H72.3599L79.4033 56.7499V66ZM101.96 61.4959C98.9671 61.4959 96.972 59.2287 96.972 55.2989V55.0571C96.972 51.1273 98.8765 48.9206 101.93 48.9206C104.983 48.9206 106.917 51.1878 106.917 55.0268V55.2687C106.917 59.138 105.013 61.4959 101.96 61.4959ZM101.839 66.3627C108.822 66.3627 113.386 61.8284 113.386 55.178V54.9362C113.386 48.2253 108.52 44.0839 101.93 44.0839C95.4606 44.0839 90.503 48.4974 90.503 55.0873V55.3291C90.503 61.8284 94.856 66.3627 101.839 66.3627ZM124.642 66.3627C130.597 66.3627 134.285 63.4305 134.285 57.1429V44.3862H128.027V56.8708C128.027 60.1053 127.211 61.4959 124.642 61.4959C122.012 61.4959 121.256 60.0146 121.256 56.9615V44.3862H115.059V57.2336C115.059 63.2794 118.536 66.3627 124.642 66.3627ZM141.228 66H147.455V49.1624H153.047V44.3862H135.635V49.1624H141.228V66ZM163.995 66.3627C169.95 66.3627 173.638 63.4305 173.638 57.1429V44.3862H167.381V56.8708C167.381 60.1053 166.565 61.4959 163.995 61.4959C161.365 61.4959 160.609 60.0146 160.609 56.9615V44.3862H154.412V57.2336C154.412 63.2794 157.889 66.3627 163.995 66.3627ZM176.44 66H186.173C191.524 66 194.033 63.8537 194.033 59.9844V59.8635C194.033 56.8708 192.37 55.2687 189.71 54.8152C192.128 54.1804 193.368 52.5783 193.368 50.16V50.039C193.368 46.6836 191.191 44.3862 186.083 44.3862H176.44V66ZM182.485 61.8586V56.7499H184.873C187.05 56.7499 187.927 57.5963 187.927 59.2287V59.3496C187.927 60.9517 187.02 61.8586 185.055 61.8586H182.485ZM182.485 52.9713V48.4974H184.843C186.717 48.4974 187.503 49.1624 187.503 50.6436V50.7645C187.503 52.3062 186.778 52.9713 184.843 52.9713H182.485ZM195.747 66H211.164V61.2238H201.914V57.294H208.897V52.8806H201.914V49.1624H210.68V44.3862H195.747V66ZM217.801 66H223.333V52.5481L228.563 66H230.619L235.909 52.5481V66H242.075V44.3862H234.155L230.014 55.9035L225.873 44.3862H217.801V66ZM254.511 66.3627C260.466 66.3627 264.154 63.4305 264.154 57.1429V44.3862H257.897V56.8708C257.897 60.1053 257.081 61.4959 254.511 61.4959C251.881 61.4959 251.125 60.0146 251.125 56.9615V44.3862H244.928V57.2336C244.928 63.2794 248.405 66.3627 254.511 66.3627ZM274.728 66.3627C280.29 66.3627 283.434 63.1282 283.434 59.1682C283.434 54.4827 280.623 53.062 275.151 52.4574C272.461 52.0946 271.796 51.5505 271.796 50.3413C271.796 49.2531 272.642 48.4974 274.305 48.4974C275.998 48.4974 276.874 49.2833 277.086 50.825H282.829C282.436 46.2604 279.504 44.0839 274.305 44.0839C269.136 44.0839 265.931 46.9255 265.931 50.825C265.931 55.178 267.987 56.9917 274.093 57.7172C276.693 58.1102 277.509 58.473 277.509 59.803C277.509 61.0727 276.511 61.9493 274.728 61.9493C272.158 61.9493 271.463 60.6797 271.312 59.138H265.417C265.599 63.8235 268.682 66.3627 274.728 66.3627ZM285.292 66H291.549V44.3862H285.292V66ZM304.746 66.3627C310.339 66.3627 314.389 63.4608 314.812 57.8684H308.646C308.343 60.2565 306.802 61.4052 304.625 61.4052C301.663 61.4052 300 59.1985 300 55.2989V55.0571C300 51.1273 301.753 48.9508 304.535 48.9508C306.711 48.9508 307.92 50.16 308.162 52.3667H314.54C314.026 46.6534 310.127 44.0537 304.504 44.0537C298.186 44.0537 293.471 48.4369 293.471 55.0873V55.3291C293.471 61.9493 297.189 66.3627 304.746 66.3627Z" fill="black"></path> <path d="M362.567 37.8914H360.586V45.8189H362.567V37.8914Z" fill="black"></path> <path d="M356.623 43.8367H354.642V45.8178H356.623V43.8367Z" fill="black"></path> <path d="M358.601 33.9265H356.618V35.9076H358.601V33.9265Z" fill="black"></path> <path d="M360.581 35.9077H358.6V37.8904H360.581V35.9077Z" fill="black"></path> <path d="M364.546 31.9443H362.565V35.9081H364.546V31.9443Z" fill="black"></path> <path d="M362.565 29.9634H360.583V31.946H362.565V29.9634Z" fill="black"></path> <path d="M360.585 45.8186H358.604V47.8013H360.585V45.8186Z" fill="black"></path> <path d="M358.608 47.8H356.625V49.7812H358.608V47.8Z" fill="black"></path> <path d="M366.53 35.9084H364.549V47.7997H366.53V35.9084Z" fill="black"></path> <path d="M334.822 47.7999H342.749V49.781H344.732V51.7621H346.713V53.7448H348.696V55.7259H350.677V57.7085H352.658V26H350.677V27.9826H348.696V29.9638H346.713V31.9464H344.732V33.9275H342.749V35.9086H334.822V47.7999ZM344.731 35.9086H346.712V33.9275H348.694V31.9464H350.675V33.9275H348.694V35.9086H346.712V37.8913H344.731V35.9086Z" fill="black"></path> <path d="M364.551 47.8H362.569V51.7638H364.551V47.8Z" fill="black"></path> <path d="M356.626 37.8918H354.645V39.873H356.626V37.8918Z" fill="black"></path> <path d="M358.605 39.8728H356.623V43.8366H358.605V39.8728Z" fill="black"></path> </svg> 