<?xml version="1.0" encoding="UTF-8"?> <svg xmlns="http://www.w3.org/2000/svg" width="50" height="50" viewBox="0 0 50 50" fill="none"> <circle cx="24.7411" cy="24.7001" r="24.5731" fill="#FD4E22"></circle> <path d="M35.6277 18.8871C35.4598 19.0176 32.4954 20.6911 32.4954 24.4121C32.4954 28.7162 36.2675 30.2388 36.3804 30.2765C36.3631 30.3693 35.7812 32.3618 34.3916 34.392C33.1526 36.1786 31.8585 37.9623 29.89 37.9623C27.9214 37.9623 27.4148 36.8167 25.1423 36.8167C22.9276 36.8167 22.1402 38 20.3395 38C18.5389 38 17.2825 36.3468 15.8379 34.3166C14.1646 31.9326 12.8127 28.2289 12.8127 24.7138C12.8127 19.0756 16.4719 16.0854 20.0732 16.0854C21.9868 16.0854 23.5819 17.3441 24.7833 17.3441C25.9268 17.3441 27.7101 16.01 29.8871 16.01C30.7121 16.01 33.6766 16.0854 35.6277 18.8871ZM28.8536 13.6231C29.7539 12.5529 30.3908 11.0679 30.3908 9.58296C30.3908 9.37704 30.3734 9.16822 30.3358 9C28.8709 9.05511 27.1282 9.9774 26.0773 11.1984C25.2523 12.1381 24.4822 13.6231 24.4822 15.1283C24.4822 15.3545 24.5198 15.5808 24.5372 15.6533C24.6298 15.6707 24.7804 15.691 24.9309 15.691C26.2452 15.691 27.8982 14.8093 28.8536 13.6231Z" fill="#FFDD2B"></path> </svg> 