<?xml version="1.0" encoding="UTF-8"?> <svg xmlns="http://www.w3.org/2000/svg" width="50" height="50" viewBox="0 0 50 50" fill="none"> <path d="M22.207 28.3925L29.843 24.3418L22.207 20.373V28.3925Z" fill="#FD4E22"></path> <path d="M25.0051 0.126953C11.3873 0.126953 0.347656 11.1666 0.347656 24.7844C0.347656 38.4021 11.3873 49.4418 25.0051 49.4418C38.6228 49.4418 49.6625 38.4021 49.6625 24.7844C49.6625 11.1666 38.6228 0.126953 25.0051 0.126953ZM38.7723 30.5272C38.4438 32.6073 37.4383 33.7369 35.3236 33.9759C32.9605 34.2429 27.6472 34.3659 25.2856 34.3659C22.8419 34.3659 17.8997 34.2634 15.4325 34.0579C13.3119 33.8814 11.8648 32.6968 11.5733 30.5887C11.3613 29.0536 11.2243 27.229 11.2243 24.3278C11.2243 21.0981 11.3408 19.7316 11.6143 18.2725C12.0048 16.1904 12.9989 15.1818 15.268 14.9473C17.6491 14.7008 19.9003 14.5778 24.9366 14.5778C27.3987 14.5778 32.707 14.7053 35.1591 14.9268C37.3008 15.1203 38.5073 16.4304 38.7718 18.519C38.9563 19.9766 39.1209 22.0632 39.1209 24.3078C39.1214 28.2485 38.7723 30.5272 38.7723 30.5272Z" fill="#FD4E22"></path> </svg> 