<?xml version="1.0" encoding="UTF-8"?> <svg xmlns="http://www.w3.org/2000/svg" width="50" height="50" viewBox="0 0 50 50" fill="none"> <path d="M31.7661 12.3628H18.7938C15.5476 12.3628 12.9065 15.0039 12.9065 18.2501V31.3414C12.9065 34.5876 15.5476 37.2287 18.7938 37.2287H31.7661C35.0122 37.2287 37.6534 34.5876 37.6534 31.3414V18.2501C37.6534 15.0039 35.0122 12.3628 31.7661 12.3628ZM25.3047 32.6344C20.9044 32.6344 17.3247 29.0927 17.3247 24.7395C17.3247 20.3862 20.9049 16.8445 25.3047 16.8445C29.7044 16.8445 33.2846 20.3862 33.2846 24.7395C33.2846 29.0927 29.7049 32.6344 25.3047 32.6344ZM33.4267 18.3991C32.3896 18.3991 31.5491 17.5586 31.5491 16.5215C31.5491 15.4845 32.3896 14.6439 33.4267 14.6439C34.4637 14.6439 35.3043 15.4845 35.3043 16.5215C35.3043 17.5586 34.4637 18.3991 33.4267 18.3991Z" fill="#FD4E22"></path> <path d="M25.341 0.126953C11.7232 0.126953 0.683594 11.1666 0.683594 24.7844C0.683594 38.4021 11.7232 49.4418 25.341 49.4418C38.9588 49.4418 49.9984 38.4021 49.9984 24.7844C49.9984 11.1666 38.9588 0.126953 25.341 0.126953ZM40.5654 31.3412C40.5654 36.1935 36.6176 40.1407 31.7659 40.1407H18.7936C13.9413 40.1407 9.99412 36.193 9.99412 31.3412V18.25C9.99412 13.3977 13.9418 9.45048 18.7936 9.45048H31.7659C36.6181 9.45048 40.5654 13.3982 40.5654 18.25V31.3412Z" fill="#FD4E22"></path> <path d="M25.3038 19.751C22.5061 19.751 20.2305 21.9886 20.2305 24.7393C20.2305 27.4899 22.5061 29.7275 25.3038 29.7275C28.1014 29.7275 30.377 27.4899 30.377 24.7393C30.377 21.9886 28.1014 19.751 25.3038 19.751Z" fill="#FD4E22"></path> </svg> 