<?xml version="1.0" encoding="UTF-8"?> <svg xmlns="http://www.w3.org/2000/svg" width="427" height="487" viewBox="0 0 427 487" fill="none"> <path d="M20.1805 131.607H68.7451L48.7403 113.77H20.1805V0.1875H0V45.4355L7.69954 131.607H20.1805Z" fill="#FD4E22"></path> <path d="M83.6174 131.982L89.7817 146.619L96.1101 131.982L99.6962 45.4355V0.187508H96.1101V0L89.7817 0.187508L83.6174 0V0.187508H79.5156V45.4355H79.6914L83.6174 131.982Z" fill="#FD4E22"></path> <path d="M138.169 0.1875H113.887V17.8367H134.067H138.169V45.4355H138.345L142.271 131.982L148.435 146.432L154.763 131.982L158.35 45.4355V17.8367H162.627H182.632V0.1875H158.35H138.169Z" fill="#FD4E22"></path> <path d="M220.591 0.1875H196.309V17.8367H216.489H220.591V45.4355H220.767L224.704 131.982L230.857 146.432L237.185 131.982L240.771 45.4355V17.8367H245.049H265.054V0.1875H240.771H220.591Z" fill="#FD4E22"></path> <path d="M298.911 131.607H347.476L327.471 113.77H298.911V0.1875H278.73V45.4355L286.43 131.607H298.911Z" fill="#FD4E22"></path> <path d="M378.259 113.958V54.4476H407.158L417.073 45.4355L407.158 36.6109H378.259V17.8367H406.818L426.999 0.1875H378.259H358.254V17.8367V45.4355L365.778 131.795H378.259V131.607H426.999L406.818 113.958H378.259Z" fill="#FD4E22"></path> <path d="M3.73828 157.413V451.8L17.8717 484.509L50.3457 467.317C53.9083 465.641 58.7484 462.488 64.8658 457.883C70.9833 453.265 77.6632 447.335 84.9174 440.058C92.1717 432.792 99.6837 424.471 107.454 415.107C115.223 405.744 122.478 395.337 129.228 383.864C135.966 372.403 141.896 360.027 146.994 346.749C152.08 333.471 155.643 319.56 157.694 305.029V299.579C157.694 291.469 156.03 283.993 152.725 277.149C149.408 270.305 144.826 264.082 138.978 258.492C144.838 253.183 149.42 247.1 152.725 240.245C156.03 233.401 157.694 225.924 157.694 217.814V157.425H3.73828V157.413ZM111.462 305.029C109.938 320.404 106.434 335.85 100.961 351.367C95.4765 366.883 88.984 381.356 81.4837 394.775C73.9717 408.193 65.8268 419.936 57.0374 430.003C48.2479 440.069 39.7867 447.335 31.6301 451.812L47.287 278.613H85.48C92.6053 278.344 98.7227 280.289 103.821 284.485C108.907 288.68 111.462 293.708 111.462 299.579V305.029ZM111.462 212.353V217.802C111.462 223.674 108.918 228.701 103.821 232.897C98.7227 237.092 92.4881 239.049 85.105 238.768V239.19H48.8105V196.837H111.462V212.353Z" fill="#FD4E22"></path> <path d="M227.576 156.991L213.442 157.413L199.696 156.991V157.413H190.531V258.48H190.906L199.696 451.8L213.442 484.509L227.576 451.8L235.603 258.48V157.413H227.576V156.991Z" fill="#FD4E22"></path> <path d="M373.305 305.661C371.395 322.022 368.91 337.737 365.852 352.843C362.793 367.937 359.359 381.708 355.539 394.153C351.718 406.599 347.898 416.584 344.077 424.143C340.257 416.596 336.436 406.599 332.616 394.153C328.796 381.719 325.42 367.949 322.491 352.843C319.561 337.749 317.147 322.022 315.236 305.661C313.326 289.301 312.377 273.586 312.377 258.48V196.837H420.862V157.413H267.305V258.48C267.305 275.25 268.77 291.751 271.699 307.958C274.629 324.178 278.379 339.694 282.973 354.507C287.556 369.332 292.454 383.02 297.681 395.607C302.896 408.181 307.806 419.162 312.389 428.526C316.971 437.901 320.92 445.366 324.225 450.957C327.53 456.547 329.311 459.617 329.569 460.18L344.089 486.595L358.984 460.18C359.23 459.617 361.023 456.547 364.328 450.957C367.633 445.366 371.582 437.89 376.165 428.526C380.747 419.162 385.646 408.193 390.872 395.607C396.087 383.02 400.998 369.332 405.58 354.507C410.162 339.694 413.912 324.178 416.854 307.958C419.784 291.751 421.249 275.25 421.249 258.48H376.176C376.176 273.574 375.227 289.301 373.317 305.661H373.305Z" fill="#FD4E22"></path> </svg> 