<?xml version="1.0" encoding="UTF-8"?> <svg xmlns="http://www.w3.org/2000/svg" width="50" height="50" viewBox="0 0 50 50" fill="none"> <path d="M25 0C11.1996 0 0 11.1996 0 25C0 38.8004 11.1996 50 25 50C38.8004 50 50 38.8004 50 25C50 11.1996 38.8004 0 25 0Z" fill="#FD4E22"></path> <path d="M40.9879 22.4895C40.4637 22.4895 40.1411 22.3585 39.6875 22.0964C32.5101 17.8121 19.6774 16.7839 11.371 19.1024C11.0081 19.2032 10.5544 19.3645 10.0706 19.3645C8.73992 19.3645 7.72177 18.3262 7.72177 16.9855C7.72177 15.6145 8.56855 14.8383 9.4758 14.5762C13.0242 13.5379 16.996 13.0439 21.3206 13.0439C28.6794 13.0439 36.3911 14.5762 42.0262 17.8625C42.8125 18.3161 43.3266 18.9411 43.3266 20.1407C43.3266 21.5117 42.2177 22.4895 40.9879 22.4895ZM37.8629 30.171C37.3387 30.171 36.9859 29.9391 36.623 29.7476C30.3226 26.0177 20.9274 24.5157 12.5706 26.7839C12.0867 26.9149 11.8246 27.046 11.371 27.046C10.2923 27.046 9.41532 26.1689 9.41532 25.0903C9.41532 24.0117 9.93951 23.296 10.9778 23.0036C13.7802 22.2173 16.6431 21.6327 20.8367 21.6327C27.379 21.6327 33.6996 23.2556 38.6794 26.2193C39.496 26.7032 39.8185 27.3282 39.8185 28.2052C39.8085 29.2939 38.9617 30.171 37.8629 30.171ZM35.1512 36.7839C34.7278 36.7839 34.4657 36.6528 34.0726 36.421C27.7823 32.6306 20.4637 32.4693 13.2359 33.9512C12.8427 34.052 12.3286 34.2133 12.0363 34.2133C11.0585 34.2133 10.4435 33.4371 10.4435 32.6206C10.4435 31.5823 11.0585 31.0883 11.8145 30.927C20.0706 29.1024 28.5081 29.2637 35.7056 33.5681C36.3206 33.9613 36.6835 34.3141 36.6835 35.2314C36.6835 36.1488 35.9677 36.7839 35.1512 36.7839Z" fill="#FFDD2B"></path> </svg> 