<?xml version="1.0" encoding="UTF-8"?> <svg xmlns="http://www.w3.org/2000/svg" width="493" height="439" viewBox="0 0 493 439" fill="none"> <path d="M461.007 194.542L460.895 199.381L492.346 200.109L492.458 195.271L461.007 194.542Z" fill="#FFDD2B"></path> <path d="M481.05 206.383L480.851 209.413L491.793 210.66L492.061 206.577L481.05 206.383Z" fill="#FFDD2B"></path> <path d="M460.661 212.388L459.878 217.076L483.964 221.099L483.95 221.186L458.435 225.712L457.775 229.661L480.434 242.234L480.419 242.321L456.333 238.297L455.55 242.985L486.58 248.168L487.631 241.875L464.742 228.817L464.756 228.731L490.64 223.865L491.691 217.572L460.661 212.388Z" fill="#FFDD2B"></path> <path d="M445.894 269.897C444.142 274.361 444.704 277.749 446.89 280.97L446.858 281.052L442.369 280.566L441.147 283.679L456.466 289.691L461.658 276.461L457.89 274.982L454.498 283.625C449.64 281.671 447.792 276.503 449.689 271.67C452.373 264.83 458.929 265.228 464.458 267.398C469.947 269.552 474.783 274.333 472.243 280.804C470.539 285.146 467.414 287.086 463.423 286.418L461.574 291.128C467.514 292.372 473.144 289.949 476.118 282.372C479.397 274.016 475.113 266.143 466.307 262.688C457.46 259.216 449.205 261.459 445.894 269.897Z" fill="#FFDD2B"></path> <path d="M432.155 298.611C427.456 306.771 430.434 315.442 438.631 320.163C446.829 324.885 455.786 323.087 460.485 314.927C465.184 306.768 462.245 298.118 454.047 293.397C445.849 288.676 436.855 290.452 432.155 298.611ZM451.522 297.782C457.127 301.01 460.574 306.397 456.863 312.841C453.152 319.285 446.762 319.007 441.157 315.778C435.552 312.55 432.067 307.141 435.778 300.697C439.489 294.254 445.917 294.554 451.522 297.782Z" fill="#FFDD2B"></path> <path d="M423.008 314.88L420.02 318.688L439.058 333.628L439.003 333.697L410.92 330.283L407.497 334.645L432.247 354.067L435.262 350.225L416.224 335.285L416.278 335.215L444.334 338.664L447.757 334.302L423.008 314.88Z" fill="#FFDD2B"></path> <path d="M404.269 338.182L400.785 341.542L417.583 358.962L417.52 359.023L390.175 351.774L386.184 355.622L408.022 378.268L411.537 374.878L394.739 357.458L394.802 357.397L422.116 364.677L426.107 360.828L404.269 338.182Z" fill="#FFDD2B"></path> <path d="M384.711 356.998L380.595 360.016L382.975 367.654L372.365 375.432L365.797 370.863L361.538 373.985L389.648 392.386L393.871 389.291L384.711 356.998ZM384.224 371.813L389.159 387.18L389.088 387.232L375.884 377.926L384.224 371.813Z" fill="#FFDD2B"></path> <path d="M338.774 385.35C331.637 388.784 329.391 395.481 331.791 402.09L336.35 399.896C334.968 396.313 335.155 391.73 340.626 389.097C346.89 386.082 351.826 390.25 354.555 395.92C357.264 401.55 357.442 408.007 351.178 411.022C345.746 413.636 342.246 410.828 340.395 408.301L335.836 410.495C339.239 415.841 345.815 418.242 352.911 414.827C360.96 410.953 363.217 402.25 359.095 393.686C354.993 385.162 346.822 381.476 338.774 385.35Z" fill="#FFDD2B"></path> <path d="M326.573 391.869L321.725 393.463L321.622 401.463L309.124 405.571L304.294 399.192L299.278 400.841L320.305 427.045L325.279 425.41L326.573 391.869ZM321.52 405.804L321.453 421.944L321.369 421.971L311.697 409.033L321.52 405.804Z" fill="#FFDD2B"></path> <path d="M297.844 400.835L277.489 404.96L278.319 409.057L293.93 405.893L299.348 432.63L304.092 431.669L297.844 400.835Z" fill="#FFDD2B"></path> <path d="M275.884 405.009L255.212 407.008L255.615 411.169L271.469 409.636L274.094 436.789L278.912 436.323L275.884 405.009Z" fill="#FFDD2B"></path> <path d="M233.258 406.44L228.386 406.101L227.512 418.654L214.966 436.703L220.145 437.064L229.617 422.638L229.705 422.644L237.088 438.242L242.312 438.605L232.385 418.993L233.258 406.44Z" fill="#FFDD2B"></path> <path d="M202.449 401.68C193.235 399.74 185.913 405.257 183.963 414.514C182.013 423.771 186.498 431.73 195.711 433.67C204.925 435.611 212.238 430.137 214.188 420.88C216.138 411.623 211.663 403.621 202.449 401.68ZM209.237 419.837C207.904 426.166 203.849 431.113 196.573 429.58C189.296 428.048 187.581 421.886 188.914 415.557C190.247 409.228 194.311 404.238 201.587 405.77C208.864 407.303 210.57 413.508 209.237 419.837Z" fill="#FFDD2B"></path> <path d="M172.914 393.227C164.776 390.243 159.787 393.241 157.454 399.603L150.304 419.101L154.89 420.783L162.04 401.284C163.721 396.699 166.766 395.425 171.475 397.152C176.143 398.863 177.684 401.818 176.002 406.404L168.853 425.902L173.397 427.569L180.547 408.07C182.879 401.708 181.011 396.196 172.914 393.227Z" fill="#FFDD2B"></path> <path d="M158.992 384.284L159.999 382.132C156.437 381.438 154.331 382.93 153.119 385.521L151.088 389.865L155.432 391.897L157.464 387.552L155.391 386.583C156.321 384.492 157.312 384.033 158.992 384.284Z" fill="#FFDD2B"></path> <path d="M139.776 379.087L135.834 376.434L122.2 396.694L122.127 396.645L128.569 371.545L125.247 369.31L104.422 384.731L104.349 384.682L117.983 364.422L114.04 361.769L96.4766 387.869L101.77 391.431L123.132 376.001L123.205 376.05L116.919 401.626L122.212 405.187L139.776 379.087Z" fill="#FFDD2B"></path> <path d="M104.302 352.939L100.678 349.666L92.2434 359.005L71.2325 365.464L75.0857 368.944L91.4411 363.438L91.5064 363.497L87.6904 380.327L91.5763 383.837L95.868 362.278L104.302 352.939Z" fill="#FFDD2B"></path> <path d="M77.1601 323.006C72.3204 316.792 66.8827 316.398 62.6131 319.724C57.3714 323.807 59.7407 329.211 62.2569 334.948C63.9459 338.764 65.3836 341.827 62.6066 343.99C60.4544 345.666 58.0651 344.961 55.6318 341.837C52.8199 338.227 53.1266 335.255 55.7875 332.514L52.7052 328.556C48.004 332.832 47.9887 338.755 52.3958 344.413C56.5596 349.759 61.6197 351.172 65.9241 347.819C70.6451 344.142 68.5692 338.899 66.5824 334.2C64.2131 328.795 62.7717 326.014 65.9306 323.554C68.187 321.796 70.8689 321.659 73.9782 325.651C77.6012 330.303 76.886 334.039 73.7698 336.912L76.8521 340.869C82.2246 336.239 82.0538 329.289 77.1601 323.006Z" fill="#FFDD2B"></path> <path d="M64.7802 306.991L62.2342 302.415L36.8959 308.912L36.8531 308.835L55.7088 290.689L53.1843 286.152L21.8641 294.567L24.3245 298.988L48.6666 291.788L48.7094 291.864L30.2509 309.638L32.7326 314.098L57.5454 307.744L57.5882 307.82L38.6376 324.71L41.098 329.132L64.7802 306.991Z" fill="#FFDD2B"></path> <path d="M49.3726 277.733L41.3965 256.476L37.4829 257.945L43.7587 274.67L34.4073 278.179L29.0435 263.884L25.13 265.352L30.4937 279.647L22.131 282.785L16.0099 266.472L12.0963 267.94L19.9178 288.785L49.3726 277.733Z" fill="#FFDD2B"></path> <path d="M40.5658 253.509L35.212 231.445L31.1499 232.431L35.3623 249.791L25.656 252.146L22.0557 237.309L17.9936 238.295L21.5939 253.132L12.9138 255.238L8.80508 238.306L4.74295 239.291L9.99292 260.928L40.5658 253.509Z" fill="#FFDD2B"></path> <path d="M33.7914 220.291L33.2092 215.442L6.12371 218.694L4.91227 208.602L0.762063 209.1L3.76708 234.133L7.91728 233.635L6.70584 223.543L33.7914 220.291Z" fill="#FFDD2B"></path> <path d="M32.9574 180.148C33.3827 172.284 29.5378 168.418 24.1337 168.126C17.4994 167.767 15.7406 173.401 13.875 179.381C12.6459 183.368 11.7208 186.623 8.20598 186.433C5.48196 186.286 4.14136 184.186 4.35518 180.232C4.60226 175.663 6.78366 173.621 10.5906 173.298L10.8615 168.29C4.50859 168.431 0.610091 172.891 0.222842 180.053C-0.143026 186.819 2.74834 191.205 8.19638 191.5C14.1717 191.823 16.0456 186.504 17.6297 181.655C19.3885 176.021 20.1259 172.977 24.1241 173.193C26.9799 173.348 29.0936 175.004 28.8203 180.057C28.502 185.944 25.5107 188.294 21.2739 188.417L21.0031 193.426C28.0957 193.457 32.5274 188.101 32.9574 180.148Z" fill="#FFDD2B"></path> <path d="M33.4291 165.09L37.4267 142.741L33.312 142.005L30.1666 159.59L20.3346 157.831L23.023 142.801L18.9083 142.065L16.2199 157.095L7.4275 155.522L10.4955 138.37L6.38077 137.634L2.46059 159.551L33.4291 165.09Z" fill="#FFDD2B"></path> <path d="M38.2509 139.097L39.7276 134.488L16.6814 127.104L16.7083 127.02L44.2248 120.45L45.9162 115.171L15.9562 105.572L14.4661 110.223L37.5123 117.607L37.4854 117.691L9.98239 124.219L8.29092 129.498L38.2509 139.097ZM6.65218 122.644L7.53819 119.878C6.99346 119.703 6.11189 119.282 6.42065 118.319C6.80996 117.103 8.97786 115.673 9.64908 113.578C10.1995 111.86 9.46759 109.962 6.24113 108.928L5.35512 111.694C5.98366 111.895 6.78142 112.289 6.48609 113.211C6.08335 114.468 3.92888 115.857 3.24424 117.994C2.69384 119.712 3.50953 121.637 6.65218 122.644Z" fill="#FFDD2B"></path> <path d="M54.1151 98.7579C58.2614 90.3039 54.7136 81.8499 46.2201 77.6842C37.7266 73.5186 28.9096 75.9082 24.7633 84.3621C20.617 92.8161 24.1253 101.251 32.6188 105.416C41.1122 109.582 49.9688 107.212 54.1151 98.7579ZM34.8469 100.873C29.0397 98.0252 25.2418 92.879 28.5162 86.2028C31.7906 79.5265 38.1848 79.3791 43.992 82.2272C49.7991 85.0754 53.6366 90.241 50.3622 96.9172C47.0878 103.593 40.6541 103.722 34.8469 100.873Z" fill="#FFDD2B"></path> <path d="M62.0568 82.1002L64.7736 78.0947L54.5776 71.1792L59.1221 64.479C63.4442 58.1065 70.8683 66.7572 72.7511 66.3329L75.6655 62.036L75.4106 61.8631C74.0104 62.9869 65.2482 53.8007 60.0194 59.0798L59.9466 59.0304C61.2423 55.7091 60.1973 52.0763 56.8837 49.8287C52.077 46.5686 47.283 47.8361 43.3806 53.5896L36.0206 64.441L62.0568 82.1002ZM51.1182 68.8328L42.1967 62.7818L46.2966 56.737C49.0134 52.7315 51.6296 52.1665 54.4335 54.0683C57.4194 56.0936 57.6633 59.1831 55.1687 62.8609L51.1182 68.8328Z" fill="#FFDD2B"></path> <path d="M78.666 58.7142L81.7365 54.9728L57.4178 35.0146L54.3473 38.756L78.666 58.7142Z" fill="#FFDD2B"></path> <path d="M90.2135 45.3914L93.6037 41.8757L73.9666 22.9394L81.0219 15.623L78.0129 12.7215L60.5122 30.87L63.5211 33.7715L70.5764 26.4551L90.2135 45.3914Z" fill="#FFDD2B"></path> <path d="M99.7711 35.1889L103.728 31.9653L100.961 24.4581L111.161 16.1491L117.954 20.377L122.047 17.0423L93.0353 0.0986328L88.9757 3.40559L99.7711 35.1889ZM99.5025 20.3685L93.7889 5.27339L93.8571 5.21781L107.519 13.838L99.5025 20.3685Z" fill="#FFDD2B"></path> </svg> 