<?xml version="1.0" encoding="UTF-8"?> <svg xmlns="http://www.w3.org/2000/svg" width="593" height="593" viewBox="0 0 593 593" fill="none"> <path d="M485.013 110.329L493.065 119.302C498.884 125.786 506.51 125.918 514.042 119.159C521.574 112.4 522.239 104.708 516.421 98.2244L508.427 89.3171L485.013 110.329ZM491.357 111.14L508.549 95.7111L513.163 100.852C518.041 106.288 515.211 111.37 510.692 115.426C506.173 119.481 500.849 121.717 495.97 116.281L491.357 111.14Z" fill="#FFDD2B"></path> <path d="M512.535 144.658C517.946 152.364 527.064 153.327 534.805 147.891C542.547 142.454 544.7 133.576 539.289 125.871C533.878 118.165 524.796 117.176 517.055 122.613C509.313 128.049 507.124 136.953 512.535 144.658ZM519.962 126.754C525.256 123.037 531.595 122.187 535.868 128.273C540.142 134.358 537.191 140.033 531.898 143.75C526.604 147.467 520.229 148.342 515.956 142.256C511.682 136.171 514.669 130.471 519.962 126.754Z" fill="#FFDD2B"></path> <path d="M523.956 160.517L526.236 164.787L547.583 153.387L547.625 153.465L533.179 177.789L535.791 182.679L563.542 167.861L561.241 163.552L539.894 174.951L539.853 174.874L554.319 150.589L551.708 145.698L523.956 160.517Z" fill="#FFDD2B"></path> <path d="M556.304 178.965L557.539 181.739L567.802 177.747L566.138 174.008L556.304 178.965Z" fill="#FFDD2B"></path> <path d="M543.514 201.411L545.231 205.983L570.77 196.395L574.343 205.91L578.256 204.441L569.394 180.838L565.481 182.307L569.054 191.822L543.514 201.411Z" fill="#FFDD2B"></path> <path d="M552.447 228.19L555.442 241.902C556.832 248.264 560.819 251.672 566.708 250.385C571.308 249.381 573.071 246.113 572.925 242.767L573.011 242.748C574.425 245.096 576.676 246.947 580.459 246.12C585.359 245.05 587.389 240.733 586.008 234.414L583.182 221.476L552.447 228.19ZM557.563 232.026L567.708 229.81L569.736 239.095C570.441 242.319 569.024 244.7 565.8 245.404C562.92 246.033 560.446 245.223 559.451 240.666L557.563 232.026ZM571.448 228.993L580.131 227.096L581.972 235.521C582.676 238.745 581.399 240.736 578.691 241.327C575.94 241.928 574.058 240.943 573.213 237.074L571.448 228.993Z" fill="#FFDD2B"></path> <path d="M558.186 255.916L560.74 278.476L564.894 278.006L562.884 260.255L572.809 259.132L574.526 274.303L578.68 273.832L576.962 258.661L585.838 257.656L587.798 274.97L591.951 274.5L589.447 252.377L558.186 255.916Z" fill="#FFDD2B"></path> <path d="M561.349 290.488L561.201 295.59L568.69 298.405L568.308 311.555L560.668 313.93L560.514 319.208L592.304 308.335L592.456 303.101L561.349 290.488ZM572.738 299.975L587.895 305.522L587.893 305.61L572.438 310.31L572.738 299.975Z" fill="#FFDD2B"></path> <path d="M558.955 332.127L556.772 343.983C555.195 352.551 559.75 358.669 569.703 360.502C579.655 362.335 586.15 358.162 587.728 349.594L589.895 337.824L558.955 332.127ZM562.19 337.643L584.908 341.827L583.657 348.62C582.334 355.804 576.583 356.668 570.611 355.569C564.639 354.469 559.616 351.62 560.939 344.437L562.19 337.643Z" fill="#FFDD2B"></path> <path d="M549.096 373.133C546.597 381.433 549.884 386.237 556.373 388.19L576.259 394.176L577.667 389.499L557.78 383.513C553.104 382.105 551.653 379.141 553.098 374.338C554.531 369.577 557.39 367.864 562.067 369.272L581.954 375.258L583.349 370.624L563.462 364.638C556.974 362.684 551.581 364.875 549.096 373.133Z" fill="#FFDD2B"></path> <path d="M544.665 389.615L542.732 393.956L565.04 403.889L565.004 403.97L539.17 401.954L537.541 405.612L556.324 423.464L556.288 423.545L533.979 413.611L532.046 417.952L560.786 430.749L563.381 424.921L544.497 406.542L544.532 406.461L570.809 408.24L573.404 402.412L544.665 389.615Z" fill="#FFDD2B"></path> <path d="M529.807 422.25L527.303 426.288L548.058 439.156L548.012 439.23L522.69 433.73L520.58 437.133L536.768 457.368L536.721 457.443L515.966 444.575L513.462 448.614L540.201 465.191L543.563 459.768L527.345 438.998L527.391 438.923L553.184 444.249L556.546 438.826L529.807 422.25Z" fill="#FFDD2B"></path> <path d="M505.023 459.241L501.976 463.058L511.812 470.908L519.538 491.487L522.777 487.429L516.286 471.439L516.34 471.37L533.372 474.155L536.638 470.063L514.858 467.091L505.023 459.241Z" fill="#FFDD2B"></path> <path d="M500.818 478.591L492.774 487.213L495.766 490.005L503.81 481.382L500.818 478.591Z" fill="#FFDD2B"></path> <path d="M482.601 484.819L473.629 492.872C467.145 498.69 467.013 506.317 473.772 513.849C480.531 521.381 488.222 522.046 494.706 516.227L503.613 508.234L482.601 484.819ZM481.791 491.163L497.219 508.355L492.078 512.969C486.642 517.847 481.56 515.018 477.505 510.499C473.45 505.98 471.214 500.655 476.65 495.777L481.791 491.163Z" fill="#FFDD2B"></path> <path d="M449.741 511.299C442.685 516.335 442.346 522.145 446.282 527.66L458.347 544.564L462.323 541.727L450.258 524.823C447.42 520.848 448.086 517.615 452.169 514.701C456.216 511.813 459.525 512.208 462.363 516.183L474.428 533.087L478.367 530.275L466.302 513.371C462.366 507.856 456.76 506.289 449.741 511.299Z" fill="#FFDD2B"></path> <path d="M436.205 521.596L432.03 523.866L443.695 545.32L443.618 545.362L424.338 528.049L420.82 529.962L424.87 555.556L424.793 555.598L413.128 534.144L408.953 536.414L423.981 564.053L429.586 561.005L425.775 534.93L425.853 534.888L445.628 552.282L451.233 549.235L436.205 521.596Z" fill="#FFDD2B"></path> <path d="M404.557 538.425L400.108 540.095L408.691 562.957L408.609 562.988L391.911 543.173L388.162 544.58L388.631 570.488L388.548 570.519L379.965 547.657L375.516 549.328L386.574 578.78L392.547 576.538L392.382 550.186L392.465 550.156L409.642 570.12L415.615 567.878L404.557 538.425Z" fill="#FFDD2B"></path> <path d="M362.423 552.588L357.684 553.77L360.729 565.98L354.369 587.021L359.406 585.765L363.961 569.119L364.047 569.098L375.886 581.654L380.966 580.387L365.468 564.798L362.423 552.588Z" fill="#FFDD2B"></path> <path d="M344.407 556.545L339.637 557.369L344.995 588.37L349.764 587.546L344.407 556.545Z" fill="#FFDD2B"></path> <path d="M310.064 559.909C305.274 560.153 302.419 562.06 300.385 565.38L300.297 565.384L298.89 561.094L295.55 561.265L296.387 577.699L310.58 576.977L310.374 572.934L301.102 573.406C300.88 568.174 304.827 564.361 310.013 564.097C317.351 563.723 319.69 569.86 319.992 575.792C320.292 581.681 317.929 588.057 310.986 588.411C306.328 588.648 303.272 586.601 302.236 582.688L297.182 582.946C298.497 588.87 303.025 593.001 311.155 592.588C320.119 592.131 325.527 584.983 325.046 575.535C324.562 566.043 319.116 559.448 310.064 559.909Z" fill="#FFDD2B"></path> <path d="M277.69 559.582C268.299 558.898 261.785 565.35 261.098 574.785C260.411 584.22 265.924 591.504 275.315 592.187C284.706 592.871 291.217 586.463 291.904 577.028C292.591 567.593 287.081 560.266 277.69 559.582ZM286.857 576.661C286.388 583.112 283.035 588.558 275.619 588.018C268.203 587.478 265.675 581.603 266.144 575.152C266.614 568.701 269.97 563.211 277.386 563.751C284.802 564.291 287.327 570.21 286.857 576.661Z" fill="#FFDD2B"></path> <path d="M251.063 556.955L246.257 556.088L241.415 582.935L231.412 581.131L230.67 585.244L255.482 589.719L256.224 585.606L246.221 583.802L251.063 556.955Z" fill="#FFDD2B"></path> <path d="M216.29 548.461L211.646 546.949L203.204 572.891L193.539 569.746L192.246 573.721L216.221 581.522L217.514 577.547L207.849 574.402L216.29 548.461Z" fill="#FFDD2B"></path> <path d="M200.48 543.204L196.059 541.235L190.313 554.138L176.205 547.855L181.95 534.953L177.488 532.966L164.691 561.705L169.153 563.692L174.504 551.674L188.613 557.956L183.261 569.974L187.683 571.943L200.48 543.204Z" fill="#FFDD2B"></path> <path d="M175.603 532.104L171.195 529.531L165.138 534.758L153.776 528.126L155.349 520.282L150.789 517.62L145.113 550.734L149.635 553.374L175.603 532.104ZM161.821 537.56L149.694 548.211L149.618 548.167L152.891 532.348L161.821 537.56Z" fill="#FFDD2B"></path> <path d="M143.228 511.951L139.275 509.084L123.257 531.166L115.029 525.198L112.575 528.582L132.984 543.385L135.438 540.002L127.21 534.034L143.228 511.951Z" fill="#FFDD2B"></path> <path d="M115.003 488.728L111.483 485.342L102.758 494.41L81.5541 500.203L85.2956 503.803L101.817 498.816L101.88 498.877L97.5346 515.578L101.308 519.208L106.278 497.796L115.003 488.728Z" fill="#FFDD2B"></path> <path d="M94.1702 465.721C88.608 459.073 82.7887 459.18 77.5917 463.528L61.6634 476.855L64.7974 480.601L80.7257 467.274C84.4716 464.14 87.7455 464.556 90.9643 468.404C94.1547 472.217 94.0148 475.547 90.2689 478.681L74.3406 492.007L77.4464 495.719L93.3747 482.393C98.5717 478.045 99.7041 472.336 94.1702 465.721Z" fill="#FFDD2B"></path> <path d="M82.9136 453.179L80.3333 449.188L59.8271 462.448L59.7793 462.375L75.5787 441.835L73.4045 438.473L48.1915 444.455L48.1437 444.381L68.6499 431.121L66.0695 427.13L39.6517 444.213L43.1161 449.571L68.8266 443.791L68.8744 443.865L53.0314 464.904L56.4958 470.262L82.9136 453.179Z" fill="#FFDD2B"></path> <path d="M63.7179 423.014L61.7037 418.71L39.5858 429.061L39.5485 428.981L57.9924 410.78L56.2953 407.153L30.5034 409.653L30.4661 409.573L52.5841 399.222L50.5699 394.918L22.0756 408.253L24.7798 414.031L51.0372 411.8L51.0745 411.879L32.5194 430.57L35.2236 436.349L63.7179 423.014Z" fill="#FFDD2B"></path> <path d="M46.1277 381.698L44.5993 377.06L32.6474 380.998L11.1945 376.207L12.8193 381.138L29.7552 384.452L29.7828 384.536L18.1343 397.269L19.7729 402.242L34.1758 385.636L46.1277 381.698Z" fill="#FFDD2B"></path> <path d="M32.3399 368.041L29.528 356.589L25.554 357.565L28.3659 369.016L32.3399 368.041Z" fill="#FFDD2B"></path> <path d="M36.0875 342.553L35.291 337.734L22.8755 339.786L2.41524 331.751L3.26195 336.874L19.4862 342.755L19.5006 342.841L6.03171 353.63L6.8856 358.796L23.672 344.605L36.0875 342.553Z" fill="#FFDD2B"></path> <path d="M33.1671 312.421C32.6634 303.767 27.9268 300.385 21.1622 300.779L0.429338 301.986L0.713162 306.861L21.4461 305.654C26.3218 305.371 28.7027 307.656 28.9941 312.664C29.2831 317.627 27.1861 320.218 22.3103 320.501L1.57742 321.708L1.85869 326.54L22.5916 325.333C29.3561 324.939 33.6683 321.03 33.1671 312.421Z" fill="#FFDD2B"></path> <path d="M31.595 294.865L31.9057 290.123L7.53792 288.527L7.54367 288.439L32.4781 281.386L32.7398 277.391L8.93871 267.145L8.94446 267.057L33.3122 268.653L33.6229 263.912L2.23016 261.855L1.81309 268.221L25.8928 278.926L25.887 279.014L0.619403 286.442L0.202332 292.809L31.595 294.865Z" fill="#FFDD2B"></path> <path d="M34.2092 259.066L35.1551 254.409L11.2238 249.548L11.2414 249.462L36.8981 245.828L37.6952 241.904L15.4894 228.549L15.5069 228.463L39.4382 233.324L40.3841 228.667L9.55375 222.404L8.28372 228.657L30.7038 242.505L30.6862 242.591L4.64881 246.551L3.37878 252.803L34.2092 259.066Z" fill="#FFDD2B"></path> <path d="M44.5971 215.696L46.1255 211.057L34.1736 207.119L19.7707 190.513L18.1459 195.445L29.7943 208.177L29.7667 208.261L12.8308 211.576L11.1922 216.549L32.6451 211.757L44.5971 215.696Z" fill="#FFDD2B"></path> <path d="M55.6233 188.565C58.8722 181.342 56.279 174.772 50.1875 171.26L48.1118 175.875C51.4766 177.726 54.2839 181.353 51.7932 186.89C48.9414 193.23 42.4814 193.22 36.7431 190.639C31.045 188.076 26.7508 183.249 29.6026 176.909C32.0753 171.412 36.5612 171.307 39.6048 172.048L41.6804 167.434C35.6353 165.535 29.0573 167.931 25.8265 175.114C22.1626 183.26 26.04 191.373 34.7076 195.271C43.335 199.152 51.9594 196.711 55.6233 188.565Z" fill="#FFDD2B"></path> <path d="M60.7542 175.427L63.3439 171.029L58.1396 164.952L64.8147 153.615L72.6534 155.218L75.3324 150.668L42.2396 144.867L39.5829 149.379L60.7542 175.427ZM55.3501 161.624L44.7452 149.457L44.7898 149.381L60.5965 152.714L55.3501 161.624Z" fill="#FFDD2B"></path> <path d="M76.5935 148.786L79.4951 144.912L60.1261 130.404L60.1789 130.334L88.3318 133.115L91.6555 128.677L66.4758 109.817L63.5478 113.726L82.9168 128.234L82.864 128.304L54.7375 125.488L51.4138 129.925L76.5935 148.786Z" fill="#FFDD2B"></path> <path d="M106.012 112.472L109.827 108.886L97.3389 85.9017L97.403 85.8414L119.605 99.6941L123.388 96.1379L107.578 67.8215L103.891 71.2873L116.819 93.1335L116.755 93.1938L95.0111 79.6354L91.2923 83.1313L103.515 105.641L103.451 105.701L82.4442 91.4492L78.7575 94.915L106.012 112.472Z" fill="#FFDD2B"></path> <path d="M131.317 89.4842L149.644 76.083L147.177 72.7088L132.757 83.2532L126.861 75.1907L139.186 66.1787L136.718 62.8045L124.394 71.8166L119.122 64.6065L133.187 54.3219L130.719 50.9477L112.747 64.0892L131.317 89.4842Z" fill="#FFDD2B"></path> <path d="M162.955 67.6855L175.386 61.1678C181.154 58.1439 183.384 53.3972 180.585 48.0585C178.399 43.8888 174.781 43.0532 171.593 44.079L171.552 44.001C173.443 42.0162 174.632 39.356 172.834 35.9268C170.504 31.4844 165.805 30.6696 160.076 33.673L148.347 39.823L162.955 67.6855ZM165.301 61.736L160.479 52.5394L168.896 48.1262C171.819 46.5938 174.49 47.3296 176.022 50.2522C177.391 52.8631 177.264 55.4635 173.133 57.6292L165.301 61.736ZM158.701 49.1491L154.574 41.2775L162.212 37.2729C165.135 35.7405 167.392 36.4449 168.679 38.8999C169.987 41.3939 169.535 43.4691 166.027 45.308L158.701 49.1491Z" fill="#FFDD2B"></path> <path d="M188.66 54.5477L209.763 46.173L208.221 42.2878L191.617 48.8772L187.933 39.5935L202.124 33.9616L200.582 30.0764L186.391 35.7082L183.096 27.4061L199.291 20.979L197.75 17.0938L177.056 25.3062L188.66 54.5477Z" fill="#FFDD2B"></path> <path d="M235.905 39.511C243.617 37.7073 247.263 31.658 246.355 24.6855L241.428 25.8378C242 29.6354 240.823 34.068 234.91 35.4508C228.141 37.0341 224.228 31.8942 222.795 25.7675C221.372 19.6837 222.6 13.3414 229.369 11.7582C235.239 10.3854 238.046 13.8861 239.304 16.755L244.231 15.6026C242.07 9.64629 236.172 5.87436 228.503 7.668C219.805 9.70214 215.713 17.7085 217.878 26.9627C220.032 36.1741 227.208 41.5451 235.905 39.511Z" fill="#FFDD2B"></path> <path d="M252.251 35.2357L257.059 34.6737L255.418 20.6453L270.758 18.852L272.398 32.8805L277.249 32.3134L273.596 1.06616L268.745 1.63326L270.273 14.7003L254.933 16.4936L253.406 3.42655L248.598 3.98855L252.251 35.2357Z" fill="#FFDD2B"></path> <path d="M294.927 32.4887C303.595 32.4572 307.23 27.912 307.206 21.136L307.13 0.368164L302.246 0.385909L302.322 21.1538C302.34 26.0377 299.928 28.2905 294.912 28.3087C289.94 28.3268 287.468 26.0918 287.45 21.2078L287.374 0.439942L282.534 0.457527L282.61 21.2254C282.635 28.0013 286.303 32.52 294.927 32.4887Z" fill="#FFDD2B"></path> <path d="M312.592 31.8732L317.31 32.4421L320.234 8.19781L320.321 8.20835L326.003 33.4905L329.978 33.9699L341.508 10.7635L341.595 10.774L338.671 35.0183L343.389 35.5873L347.156 4.35364L340.822 3.58973L328.818 27.0493L328.731 27.0388L322.693 1.40339L316.359 0.639482L312.592 31.8732Z" fill="#FFDD2B"></path> <path d="M348.299 36.461L352.897 37.662L359.068 14.0347L359.153 14.0569L361.368 39.8748L365.242 40.8867L379.801 19.4501L379.886 19.4723L373.714 43.0996L378.312 44.3005L386.263 13.8618L380.09 12.2494L365.028 33.8729L364.943 33.8506L362.423 7.63465L356.25 6.02227L348.299 36.461Z" fill="#FFDD2B"></path> <path d="M389.844 48.7728L394.397 50.5404L398.952 38.8095L416.284 25.2898L411.444 23.4107L398.122 34.3811L398.04 34.3492L395.611 17.2638L390.73 15.3688L394.399 37.0419L389.844 48.7728Z" fill="#FFDD2B"></path> </svg> 