<?xml version="1.0" encoding="UTF-8"?> <svg xmlns="http://www.w3.org/2000/svg" width="220" height="218" viewBox="0 0 220 218" fill="none"> <path d="M190.776 113.349L189.418 120.326L205.896 127.839L205.881 127.916L187.788 128.698L186.429 135.674L212.768 148.124L214.126 141.147L196.023 133.922L196.038 133.844L215.673 133.202L216.956 126.613L198.996 118.651L199.011 118.573L218.503 118.667L219.862 111.691L190.776 113.349Z" fill="#FFDD2B"></path> <path d="M186.098 137.424L182.247 144L186.405 148.541L181.515 156.888L175.521 155.482L171.589 162.194L201.418 167.128L205.031 160.962L186.098 137.424ZM190.254 152.672L197.633 160.701L197.593 160.769L186.981 158.26L190.254 152.672Z" fill="#FFDD2B"></path> <path d="M168.099 164.05L162.982 168.984L178.551 185.128L172.667 190.802L176.696 194.98L193.608 178.672L189.579 174.494L183.667 180.195L168.099 164.05Z" fill="#FFDD2B"></path> <path d="M146.798 179.247C139.905 182.852 138.323 189.027 140.764 195.058L147.202 191.691C146.158 188.672 146.235 186.092 149.594 184.335C153.757 182.157 156.701 184.718 159.171 189.441C161.624 194.13 162.048 198.007 157.884 200.185C154.56 201.924 152.397 200.515 150.515 198.024L144.077 201.391C147.71 206.888 153.471 209.044 160.294 205.475C168.202 201.339 169.562 193.631 165.554 185.969C161.656 178.516 154.741 175.092 146.798 179.247Z" fill="#FFDD2B"></path> <path d="M135.649 185.686L128.643 186.884L130.56 198.093L121.024 199.723L119.108 188.514L112.102 189.712L116.86 217.541L123.866 216.343L122.002 205.445L131.538 203.814L133.402 214.712L140.407 213.515L135.649 185.686Z" fill="#FFDD2B"></path> <path d="M102.057 189.472L95.1698 187.717L91.0269 203.98L90.9503 203.96L85.5273 185.261L78.6397 183.506L71.6698 210.865L78.5574 212.62L82.7003 196.357L82.7768 196.377L88.1999 215.076L95.0874 216.831L102.057 189.472Z" fill="#FFDD2B"></path> <path d="M67.3734 175.937C59.9128 171.112 52.2478 173.586 47.6166 180.748C43.0068 187.877 43.8966 195.882 51.3571 200.706C58.884 205.573 66.4827 203.057 71.0925 195.928C75.7237 188.766 74.9003 180.804 67.3734 175.937ZM64.9914 191.983C62.3327 196.094 58.8526 198.64 54.5089 195.832C50.1984 193.044 51.059 188.804 53.7177 184.693C56.3978 180.548 59.911 178.024 64.2216 180.811C68.5653 183.62 67.6715 187.838 64.9914 191.983Z" fill="#FFDD2B"></path> <path d="M51.7215 164.92L47.5196 159.187L30.8181 166.191L30.7714 166.128L42.4772 152.308L38.2752 146.576L11.2562 157.471L15.4582 163.203L33.0515 154.811L33.0982 154.875L20.2438 169.732L24.2123 175.146L42.2491 167.359L42.2958 167.423L28.9978 181.675L33.1998 187.407L51.7215 164.92Z" fill="#FFDD2B"></path> <path d="M29.0487 105.655L30.2734 98.6536L13.6539 91.4572L13.6675 91.3795L31.743 90.2521L32.9677 83.2509L6.3956 71.3072L5.17091 78.3084L23.4093 85.1866L23.3957 85.2644L3.77613 86.282L2.61947 92.8943L20.7286 100.512L20.715 100.589L1.22469 100.868L0 107.869L29.0487 105.655Z" fill="#FFDD2B"></path> <path d="M33.2991 81.2661L37.0538 74.6343L32.8288 70.1551L37.595 61.7365L43.6098 63.0545L47.4422 56.2853L17.5434 51.7908L14.0222 58.0102L33.2991 81.2661ZM28.9189 66.0811L21.4233 58.1619L21.4622 58.0932L32.1094 60.4458L28.9189 66.0811Z" fill="#FFDD2B"></path> <path d="M50.6257 54.5928L55.6514 49.5671L39.7923 33.7079L45.572 27.9283L41.4676 23.8239L24.8546 40.4369L28.959 44.5413L34.7665 38.7337L50.6257 54.5928Z" fill="#FFDD2B"></path> <path d="M71.5794 38.9652C78.4044 35.2331 79.8727 29.0297 77.3201 23.0448L70.9454 26.5307C72.0452 29.5296 72.0165 32.1106 68.6906 33.9292C64.5678 36.1837 61.5777 33.6783 59.0202 29.0013C56.4816 24.3589 55.9859 20.4896 60.1086 18.2351C63.3999 16.4354 65.5884 17.8039 67.5164 20.2599L73.8911 16.7741C70.1573 11.3451 64.3566 9.29659 57.6009 12.9908C49.7712 17.2723 48.5535 25.0038 52.7024 32.5911C56.7376 39.9704 63.715 43.2656 71.5794 38.9652Z" fill="#FFDD2B"></path> <path d="M82.8836 32.1388L89.8703 30.8339L87.7824 19.6552L97.292 17.879L99.38 29.0577L106.367 27.7527L101.183 0L94.1964 1.30496L96.2263 12.1732L86.7166 13.9494L84.6867 3.08115L77.7 4.38611L82.8836 32.1388Z" fill="#FFDD2B"></path> <path d="M116.022 27.7094L122.941 29.3328L126.774 12.9947L126.851 13.0128L132.629 31.6055L139.548 33.2289L145.997 5.74251L139.077 4.11914L135.244 20.4572L135.167 20.4392L129.39 1.84641L122.47 0.22304L116.022 27.7094Z" fill="#FFDD2B"></path> <path d="M151.364 40.7183C158.895 45.4325 166.523 42.8471 171.049 35.6178C175.553 28.4219 174.546 20.431 167.015 15.7169C159.418 10.9608 151.857 13.5881 147.352 20.7839C142.827 28.0133 143.767 35.9623 151.364 40.7183ZM153.511 24.6391C156.109 20.4889 159.551 17.8921 163.936 20.6368C168.287 23.3606 167.488 27.6125 164.89 31.7627C162.271 35.9463 158.795 38.5221 154.444 35.7984C150.06 33.0537 150.892 28.8227 153.511 24.6391Z" fill="#FFDD2B"></path> <path d="M167.106 51.3396L171.412 56.9944L187.983 49.6869L188.03 49.7497L176.579 63.7801L180.885 69.4349L207.7 58.0487L203.395 52.3939L185.957 61.1056L185.909 61.0428L198.491 45.9538L194.424 40.6131L176.532 48.7279L176.484 48.6651L189.52 34.173L185.214 28.5182L167.106 51.3396Z" fill="#FFDD2B"></path> <rect x="131.579" y="99.376" width="5.40633" height="5.40633" fill="#FFDD2B"></rect> <rect x="120.763" y="99.376" width="5.40633" height="5.40633" fill="#FFDD2B"></rect> <rect x="126.171" y="99.376" width="5.40633" height="5.40633" fill="#FFDD2B"></rect> <rect x="115.364" y="99.376" width="5.40633" height="5.40633" fill="#FFDD2B"></rect> <rect x="109.956" y="99.376" width="5.40633" height="5.40633" fill="#FFDD2B"></rect> <rect x="104.548" y="99.3735" width="5.40633" height="5.40633" fill="#FFDD2B"></rect> <rect x="99.1398" y="99.3735" width="5.40633" height="5.40633" fill="#FFDD2B"></rect> <rect x="93.7317" y="99.3735" width="5.40633" height="5.40633" fill="#FFDD2B"></rect> <rect x="120.763" y="93.9702" width="5.40633" height="5.40633" fill="#FFDD2B"></rect> <rect x="120.763" y="88.562" width="5.40633" height="5.40633" fill="#FFDD2B"></rect> <rect x="126.171" y="93.9702" width="5.40633" height="5.40633" fill="#FFDD2B"></rect> <rect x="115.364" y="93.9702" width="5.40633" height="5.40633" fill="#FFDD2B"></rect> <rect x="109.956" y="93.9702" width="5.40633" height="5.40633" fill="#FFDD2B"></rect> <rect x="104.548" y="93.9702" width="5.40633" height="5.40633" fill="#FFDD2B"></rect> <rect x="99.1398" y="93.9702" width="5.40633" height="5.40633" fill="#FFDD2B"></rect> <rect x="93.7317" y="93.9702" width="5.40633" height="5.40633" fill="#FFDD2B"></rect> <rect x="115.364" y="88.562" width="5.40633" height="5.40633" fill="#FFDD2B"></rect> <rect x="115.364" y="83.1562" width="5.40633" height="5.40633" fill="#FFDD2B"></rect> <rect x="109.956" y="88.562" width="5.40633" height="5.40633" fill="#FFDD2B"></rect> <rect x="104.548" y="88.562" width="5.40633" height="5.40633" fill="#FFDD2B"></rect> <rect x="99.1398" y="88.562" width="5.40633" height="5.40633" fill="#FFDD2B"></rect> <rect x="93.7317" y="88.562" width="5.40633" height="5.40633" fill="#FFDD2B"></rect> <rect x="109.956" y="83.1562" width="5.40633" height="5.40633" fill="#FFDD2B"></rect> <rect x="104.548" y="83.1562" width="5.40633" height="5.40633" fill="#FFDD2B"></rect> <rect x="99.1398" y="83.1562" width="5.40633" height="5.40633" fill="#FFDD2B"></rect> <rect x="93.7317" y="83.1562" width="5.40633" height="5.40633" fill="#FFDD2B"></rect> <rect x="109.956" y="77.7505" width="5.40633" height="5.40633" fill="#FFDD2B"></rect> <rect x="104.548" y="77.7505" width="5.40633" height="5.40633" fill="#FFDD2B"></rect> <rect x="99.1398" y="77.7505" width="5.40633" height="5.40633" fill="#FFDD2B"></rect> <rect x="93.7317" y="77.7505" width="5.40633" height="5.40633" fill="#FFDD2B"></rect> <rect x="104.548" y="72.3423" width="5.40633" height="5.40633" fill="#FFDD2B"></rect> <rect x="99.1398" y="72.3423" width="5.40633" height="5.40633" fill="#FFDD2B"></rect> <rect x="93.7317" y="72.3423" width="5.40633" height="5.40633" fill="#FFDD2B"></rect> <rect x="99.1398" y="66.939" width="5.40633" height="5.40633" fill="#FFDD2B"></rect> <rect x="93.7317" y="66.939" width="5.40633" height="5.40633" fill="#FFDD2B"></rect> <rect x="93.7317" y="61.5308" width="5.40633" height="5.40633" fill="#FFDD2B"></rect> <rect x="136.978" y="104.782" width="5.40633" height="5.40633" fill="#FFDD2B"></rect> <rect x="131.579" y="104.782" width="5.40633" height="5.40633" fill="#FFDD2B"></rect> <rect x="120.763" y="104.782" width="5.40633" height="5.40633" fill="#FFDD2B"></rect> <rect x="126.171" y="104.782" width="5.40633" height="5.40633" fill="#FFDD2B"></rect> <rect x="115.364" y="104.782" width="5.40633" height="5.40633" fill="#FFDD2B"></rect> <rect x="109.956" y="104.782" width="5.40633" height="5.40633" fill="#FFDD2B"></rect> <rect x="104.548" y="104.782" width="5.40633" height="5.40633" fill="#FFDD2B"></rect> <rect x="99.1398" y="104.782" width="5.40633" height="5.40633" fill="#FFDD2B"></rect> <rect x="93.7317" y="104.782" width="5.40633" height="5.40633" fill="#FFDD2B"></rect> <rect x="131.579" y="110.188" width="5.40633" height="5.40633" fill="#FFDD2B"></rect> <rect x="120.763" y="110.188" width="5.40633" height="5.40633" fill="#FFDD2B"></rect> <rect x="126.171" y="110.188" width="5.40633" height="5.40633" fill="#FFDD2B"></rect> <rect x="115.364" y="110.188" width="5.40633" height="5.40633" fill="#FFDD2B"></rect> <rect x="109.956" y="110.188" width="5.40633" height="5.40633" fill="#FFDD2B"></rect> <rect x="104.548" y="110.19" width="5.40633" height="5.40633" fill="#FFDD2B"></rect> <rect x="99.1398" y="110.19" width="5.40633" height="5.40633" fill="#FFDD2B"></rect> <rect x="93.7317" y="110.19" width="5.40633" height="5.40633" fill="#FFDD2B"></rect> <rect x="120.763" y="115.593" width="5.40633" height="5.40633" fill="#FFDD2B"></rect> <rect x="126.171" y="115.593" width="5.40633" height="5.40633" fill="#FFDD2B"></rect> <rect x="115.364" y="115.593" width="5.40633" height="5.40633" fill="#FFDD2B"></rect> <rect x="109.956" y="115.593" width="5.40633" height="5.40633" fill="#FFDD2B"></rect> <rect x="104.548" y="115.593" width="5.40633" height="5.40633" fill="#FFDD2B"></rect> <rect x="99.1398" y="115.593" width="5.40633" height="5.40633" fill="#FFDD2B"></rect> <rect x="93.7317" y="115.593" width="5.40633" height="5.40633" fill="#FFDD2B"></rect> <rect x="120.763" y="121.001" width="5.40633" height="5.40633" fill="#FFDD2B"></rect> <rect x="115.364" y="121.001" width="5.40633" height="5.40633" fill="#FFDD2B"></rect> <rect x="115.364" y="126.407" width="5.40633" height="5.40633" fill="#FFDD2B"></rect> <rect x="109.956" y="131.812" width="5.40633" height="5.40633" fill="#FFDD2B"></rect> <rect x="104.548" y="131.812" width="5.40633" height="5.40633" fill="#FFDD2B"></rect> <rect x="99.1398" y="131.812" width="5.40633" height="5.40633" fill="#FFDD2B"></rect> <rect x="93.7317" y="131.812" width="5.40633" height="5.40633" fill="#FFDD2B"></rect> <rect x="104.548" y="137.221" width="5.40633" height="5.40633" fill="#FFDD2B"></rect> <rect x="99.1398" y="137.221" width="5.40633" height="5.40633" fill="#FFDD2B"></rect> <rect x="93.7317" y="137.221" width="5.40633" height="5.40633" fill="#FFDD2B"></rect> <rect x="99.1398" y="142.624" width="5.40633" height="5.40633" fill="#FFDD2B"></rect> <rect x="93.7317" y="142.624" width="5.40633" height="5.40633" fill="#FFDD2B"></rect> <rect x="93.7317" y="148.032" width="5.40633" height="5.40633" fill="#FFDD2B"></rect> <rect x="109.956" y="121.001" width="5.40633" height="5.40633" fill="#FFDD2B"></rect> <rect x="104.548" y="121.001" width="5.40633" height="5.40633" fill="#FFDD2B"></rect> <rect x="99.1398" y="121.001" width="5.40633" height="5.40633" fill="#FFDD2B"></rect> <rect x="93.7317" y="121.001" width="5.40633" height="5.40633" fill="#FFDD2B"></rect> <rect x="109.956" y="126.407" width="5.40633" height="5.40633" fill="#FFDD2B"></rect> <rect x="104.548" y="126.407" width="5.40633" height="5.40633" fill="#FFDD2B"></rect> <rect x="99.1398" y="126.407" width="5.40633" height="5.40633" fill="#FFDD2B"></rect> <rect x="93.7317" y="126.407" width="5.40633" height="5.40633" fill="#FFDD2B"></rect> </svg> 