<?xml version="1.0" encoding="UTF-8"?> <svg xmlns="http://www.w3.org/2000/svg" width="162" height="113" viewBox="0 0 162 113" fill="none"> <rect y="54.7256" width="149.781" height="61.5421" transform="rotate(-21.0993 0 54.7256)" fill="#FFDD2B"></rect> <path d="M34.5567 72.9468L30.5264 74.5019L29.1872 71.0313C32.1047 69.7255 33.1435 67.8841 33.1842 65.6561L38.2445 63.7036L44.6725 80.3624L38.3582 82.7988L34.5567 72.9468ZM62.4752 59.1388L62.5529 59.3404C63.3391 61.3779 61.8801 63.3301 60.1838 64.2675C62.4182 63.7913 64.9258 64.29 65.7639 66.4619L65.8589 66.7082C66.6365 68.7234 66.7987 72.2108 57.2602 75.8913L56.2974 76.2628C46.6245 79.9951 44.5366 77.2508 43.759 75.2356L43.664 74.9893C42.8432 72.8621 44.4107 70.791 46.3238 69.6155C44.353 70.0415 42.0229 69.6029 41.2367 67.5653L41.1589 67.3638C40.5023 65.6621 40.2147 62.5832 49.6189 58.9546L50.6041 58.5744C59.9859 54.9544 61.8186 57.4371 62.4752 59.1388ZM56.1031 62.2921L56.0772 62.2249C55.8439 61.6204 55.2005 61.0197 51.506 62.4452C47.7443 63.8967 47.7384 64.7479 47.9716 65.3525L47.9976 65.4197C48.2395 66.0466 48.9139 66.661 52.586 65.2441C56.2581 63.8272 56.345 62.919 56.1031 62.2921ZM59.1428 68.8366L59.1169 68.7694C58.8318 68.0305 58.0317 67.4903 54.0461 69.0282C50.0381 70.5747 49.853 71.495 50.1381 72.2339L50.164 72.3011C50.4232 72.9728 51.2752 73.6474 55.2384 72.1181C59.224 70.5803 59.402 69.5083 59.1428 68.8366ZM77.9769 62.9328L76.5919 66.477L71.898 64.7124L69.6507 69.1553L66.1906 67.4549L68.278 63.3309L64.0099 61.7365L65.3466 58.1338L70.0181 59.907L72.2654 55.4641L75.7479 57.1559L73.6381 61.2885L77.9769 62.9328ZM98.7678 52.4152L101.144 58.5727L79.738 66.8323L78.9863 64.8842C78.1223 62.6451 76.8877 58.6454 84.8446 53.4658C85.8106 52.8358 87.0056 52.066 87.8183 51.5724C89.7589 50.3348 89.8619 49.9349 89.6632 49.4199C89.4386 48.8378 88.7696 48.5042 85.5901 49.7311C81.7836 51.1998 82.1386 52.7864 82.353 53.4754L75.8596 55.9809L75.7991 55.8242C74.987 53.7194 74.2863 49.4365 83.3546 45.9375L84.3174 45.566C92.714 42.3261 95.2903 44.136 96.3443 46.8677L96.3789 46.9573C97.4416 49.7114 96.3702 51.6682 90.7323 54.9241L87.383 56.911C83.8047 59.0377 83.4628 60.0185 83.6529 60.5111L93.6393 56.6578L92.879 54.6874L98.7678 52.4152ZM98.904 51.6424L106.703 37.1858L113.689 34.4902L117.265 43.7601L120.736 42.4209L122.395 46.72L118.924 48.0591L120.151 51.2387L113.814 53.6837L112.588 50.5042L100.295 55.2473L98.904 51.6424ZM110.929 46.2051L109.011 41.2343L105.107 48.4514L110.929 46.2051ZM129.13 35.5548L125.995 36.7644C126.108 35.9234 126.154 34.774 125.993 34.0901L123.507 35.0491L122.082 31.3546L128.06 29.0478L129.218 32.0482C129.598 33.0334 129.4 34.6533 129.13 35.5548ZM122.346 38.1726L119.211 39.3822C119.324 38.5412 119.369 37.3918 119.208 36.7079L116.723 37.6669L115.297 33.9724L121.276 31.6656L122.433 34.666C122.813 35.6512 122.615 37.2712 122.346 38.1726Z" fill="#FD4E22"></path> </svg> 