<?xml version="1.0" encoding="UTF-8"?> <svg xmlns="http://www.w3.org/2000/svg" width="232" height="123" viewBox="0 0 232 123" fill="none"> <rect x="17.4004" width="223.645" height="61.5421" transform="rotate(16.4237 17.4004 0)" fill="#FFDD2B"></rect> <path d="M51.4078 45.5701C50.6342 48.1945 48.2555 51.1714 38.7709 48.3756L37.735 48.0703C28.1584 45.2474 28.0953 39.7743 29.1538 36.183L29.3167 35.6305C30.3685 32.0623 33.5649 27.4999 42.9113 30.2549L43.8782 30.5399C52.3038 33.0235 53.1724 36.7825 52.5142 39.0155L52.487 39.1076L45.8571 37.1533C45.78 36.9054 45.6359 35.6118 42.2748 34.6211C37.9239 33.3386 36.5302 35.605 36.1638 36.8482L36.1299 36.9633C36.7151 36.7605 38.6768 35.9625 43.7183 37.4486L43.9945 37.53C51.177 39.6472 52.2967 42.5544 51.4689 45.3629L51.4078 45.5701ZM35.5884 41.0072C35.3577 41.7899 35.8026 42.9969 39.601 44.1166C43.4685 45.2566 44.3452 44.4891 44.576 43.7064L44.5963 43.6374C44.8406 42.8086 44.5067 41.7344 40.6392 40.5944C36.8178 39.468 35.8531 40.1094 35.6088 40.9381L35.5884 41.0072ZM83.5378 53.865C82.8728 56.121 79.8661 60.4641 69.5298 57.4173L68.632 57.1527C58.0885 54.0448 58.1042 48.2195 59.061 44.9736L59.2577 44.306C60.2213 41.0371 63.189 36.2321 73.8706 39.3807L74.7684 39.6453C85.1968 42.7192 85.2722 47.8958 84.6506 50.0896L84.5624 50.3888L77.7713 48.387C77.7851 47.9157 77.8542 45.5591 72.9048 44.1002C68.1855 42.7091 66.5551 44.5054 65.9919 46.4161L65.9105 46.6924C65.3676 48.534 65.8062 51.2905 70.4103 52.6476C75.4518 54.1337 76.6708 51.8658 76.8782 51.5016L83.6463 53.4966L83.5378 53.865ZM99.5874 46.9611L100.623 47.2665C111.673 50.5236 111.553 56.1931 110.597 59.439L110.393 60.1296C109.45 63.3295 106.458 68.3024 95.3848 65.0385L94.3488 64.7331C83.2529 61.4624 83.4365 55.6616 84.3797 52.4617L84.5832 51.7711C85.54 48.5252 88.4914 43.6904 99.5874 46.9611ZM103.781 57.6051C104.317 55.7865 103.824 53.2142 98.7367 51.7146C93.5801 50.1946 91.8399 52.1086 91.3038 53.9273L91.2224 54.2035C90.6931 55.9991 91.1547 58.7624 96.2192 60.2552C101.284 61.7481 103.15 59.7461 103.686 57.9274L103.781 57.6051ZM114.04 51.5715L120.578 53.4986L116.974 65.7226L128.853 69.2241L127.408 74.1275L108.991 68.6989L114.04 51.5715ZM145.023 60.3539L146.059 60.6593C157.109 63.9165 156.989 69.5859 156.032 72.8318L155.828 73.5224C154.885 76.7223 151.893 81.6952 140.82 78.4313L139.784 78.1259C128.688 74.8552 128.872 69.0544 129.815 65.8546L130.019 65.1639C130.975 61.918 133.927 57.0832 145.023 60.3539ZM149.216 70.998C149.752 69.1793 149.26 66.607 144.172 65.1074C139.015 63.5874 137.275 65.5014 136.739 67.3201L136.658 67.5963C136.128 69.3919 136.59 72.1552 141.655 73.6481C146.719 75.1409 148.585 73.1389 149.121 71.3202L149.216 70.998ZM162.695 78.1486L160.964 84.0189L154.426 82.0917L159.475 64.9643L175.037 69.5514C180.056 71.0307 181.768 73.2868 180.947 76.0723L180.872 76.3256C180.139 78.8118 177.676 79.1869 176.292 79.1291C178.245 80.2301 179.265 82.032 178.613 84.242L177.867 86.7743C177.514 87.9714 177.546 88.4563 177.619 88.803L177.585 88.9182L170.909 86.9503C170.825 86.7254 170.824 86.4748 170.967 85.9914L171.557 83.9886C172.141 82.0088 171.535 80.7543 168.956 79.9943L162.695 78.1486ZM164.785 71.0582L163.916 74.0048L171.421 76.217C172.848 76.6377 173.591 76.156 173.835 75.3272L173.842 75.3042C174.079 74.4985 173.74 73.6978 172.29 73.2703L164.785 71.0582ZM202.469 90.2729C201.613 93.1735 199.14 95.6221 190.139 92.9689L188.044 92.3514C178.583 89.5624 178.726 85.4262 179.384 83.1932L179.452 82.963L186.635 85.0801C186.432 86.0213 186.475 87.6602 190.204 88.7595L190.411 88.8205C194.071 89.8995 194.832 89.2728 195.076 88.4441L195.083 88.4211C195.334 87.5693 195.096 86.8486 191.509 85.6912L188.359 84.6627C181.79 82.5012 180.689 79.6996 181.476 77.0292L181.538 76.822C182.359 74.0365 184.966 72.1528 192.931 74.5006L194.98 75.1045C203.451 77.6017 204.591 80.8651 203.79 83.5816L203.736 83.7657L196.623 81.6689C196.737 81.027 196.721 79.7214 193.015 78.6289L192.785 78.561C189.355 77.5499 188.833 78.0467 188.636 78.7143L188.629 78.7373C188.426 79.4279 188.763 80.1527 191.972 81.1488L195.036 82.1271C201.504 84.2086 203.575 86.5205 202.564 89.9506L202.469 90.2729Z" fill="#FD4E22"></path> </svg> 