<?xml version="1.0" encoding="UTF-8"?> <svg xmlns="http://www.w3.org/2000/svg" width="350" height="163" viewBox="0 0 350 163" fill="none"> <rect y="75.0493" width="334.502" height="89.2588" transform="rotate(-12.9625 0 75.0493)" fill="#FFDD2B"></rect> <path d="M26.485 91.676L45.7336 87.2454L46.7134 91.5021L34.0135 94.4253L34.5142 96.6004L46.9568 93.7364L47.9312 97.9697L35.4886 100.834L36.0377 103.219L48.9247 100.253L49.9261 104.603L30.4903 109.077L26.485 91.676ZM67.5885 100.538L61.4694 96.208L57.9057 102.767L49.9069 104.608L55.8258 93.8375L46.1588 87.1475L54.6488 85.1933L60.2482 89.2979L63.513 83.1529L71.3949 81.3387L65.7965 91.4686L75.7511 98.6589L67.5885 100.538ZM72.3558 86.1169L71.263 81.369L92.9206 76.3839L94.0135 81.1317L86.5058 82.8598L89.4183 95.513L82.776 97.0419L79.8635 84.3888L72.3558 86.1169ZM103.311 86.0351L104.684 91.9991L98.0417 93.528L94.0363 76.1271L109.847 72.4878C114.946 71.3142 117.544 72.4399 118.196 75.2699L118.255 75.5272C118.836 78.0532 116.875 79.5883 115.64 80.2172C117.882 80.2185 119.655 81.288 120.172 83.5333L120.764 86.106C121.044 87.3222 121.31 87.7289 121.544 87.9953L121.57 88.1122L114.788 89.6734C114.604 89.5186 114.48 89.3009 114.367 88.8097L113.899 86.775C113.436 84.7635 112.292 83.9678 109.673 84.5708L103.311 86.0351ZM101.653 78.8315L102.342 81.8252L109.967 80.0701C111.417 79.7364 111.827 78.9523 111.634 78.1103L111.628 78.0869C111.44 77.2683 110.751 76.7373 109.278 77.0764L101.653 78.8315ZM118.464 70.5042L137.713 66.0736L138.693 70.3303L125.993 73.2535L126.494 75.4286L138.936 72.5646L139.911 76.7979L127.468 79.6619L128.017 82.0476L140.904 79.0812L141.906 83.4315L122.47 87.9052L118.464 70.5042ZM143.221 83.1288L139.215 65.7278L148.337 63.6282L155.92 72.1771L159.095 61.1518L167.843 59.1384L171.848 76.5393L165.276 78.0521L162.778 67.1999L159.171 79.4572L155.78 80.2378L147.201 70.7853L149.699 81.6375L143.221 83.1288ZM169.49 58.7591L188.739 54.3284L189.719 58.5851L177.019 61.5084L177.52 63.6835L189.962 60.8195L190.937 65.0528L178.494 67.9168L179.043 70.3024L191.93 67.3361L192.932 71.6863L173.496 76.1601L169.49 58.7591ZM190.241 53.9827L196.884 52.4537L199.742 64.873L211.811 62.0951L212.957 67.0768L194.247 71.3836L190.241 53.9827ZM221.288 58.3127L222.785 64.8147L216.143 66.3436L214.635 59.7949L202.618 51.1338L210.57 49.3034L217.029 54.146L220.814 46.9454L228.088 45.2711L221.288 58.3127ZM32.9901 119.937L39.6324 118.408L42.491 130.827L54.5594 128.049L55.7061 133.031L36.9954 137.338L32.9901 119.937ZM59.469 113.842L63.4744 131.243L56.8555 132.767L52.8501 115.366L59.469 113.842ZM65.1127 130.866L61.1073 113.465L70.2288 111.365L77.8117 119.914L80.9875 108.889L89.7347 106.876L93.7401 124.277L87.1679 125.789L84.67 114.937L81.0636 127.194L77.6722 127.975L69.0933 118.523L71.5913 129.375L65.1127 130.866ZM98.0014 104.973L102.007 122.374L95.3879 123.897L91.3825 106.496L98.0014 104.973ZM100.195 109.467L99.1018 104.719L120.759 99.7343L121.852 104.482L114.345 106.21L117.257 118.863L110.615 120.392L107.702 107.739L100.195 109.467ZM121.875 99.4775L141.124 95.0468L142.104 99.3035L129.404 102.227L129.904 104.402L142.347 101.538L143.321 105.771L130.879 108.635L131.428 111.021L144.315 108.054L145.316 112.405L125.88 116.878L121.875 99.4775ZM146.631 112.102L142.626 94.7011L154.975 91.8586C165.009 89.549 168.482 93.084 169.43 97.2003L169.591 97.902C170.501 101.855 169.37 106.893 159.004 109.254L146.631 112.102ZM150.318 97.7329L152.213 105.966L157.148 104.83C162.925 103.5 162.993 100.8 162.643 99.2796L162.611 99.1393C162.261 97.619 161.053 95.2618 155.253 96.597L150.318 97.7329ZM175.151 87.2144L194.4 82.7837L195.38 87.0404L182.68 89.9637L183.181 92.1388L195.623 89.2748L196.598 93.5081L184.155 96.3721L184.704 98.7577L197.591 95.7914L198.592 100.142L179.157 104.615L175.151 87.2144ZM199.908 99.8389L195.902 82.438L208.251 79.5955C218.285 77.2859 221.758 80.8209 222.706 84.9372L222.867 85.6389C223.777 89.5915 222.646 94.6295 212.28 96.9911L199.908 99.8389ZM203.594 85.4698L205.489 93.7025L210.424 92.5666C216.201 91.2368 216.269 88.5368 215.919 87.0165L215.887 86.8762C215.537 85.3559 214.33 82.9987 208.529 84.3339L203.594 85.4698ZM228.411 74.9551L232.416 92.3561L225.797 93.8796L221.792 76.4786L228.411 74.9551ZM230.604 79.4497L229.511 74.7018L251.169 69.7167L252.262 74.4645L244.754 76.1926L247.667 88.8458L241.024 90.3747L238.112 77.7216L230.604 79.4497ZM258.904 67.9363L262.909 85.3373L256.29 86.8608L252.285 69.4599L258.904 67.9363ZM272.582 64.4431L273.634 64.2009C284.861 61.6168 287.538 66.6155 288.297 69.9133L288.459 70.615C289.207 73.8659 289.04 79.6672 277.79 82.2567L276.738 82.499C265.465 85.0938 262.778 79.9493 262.03 76.6984L261.868 75.9967C261.109 72.6989 261.309 67.038 272.582 64.4431ZM281.459 71.6598C281.033 69.8121 279.342 67.8126 274.173 69.0024C268.934 70.2083 268.357 72.73 268.782 74.5777L268.847 74.8583C269.267 76.6826 271.025 78.8638 276.17 77.6795C281.316 76.4951 281.959 73.8349 281.534 71.9872L281.459 71.6598ZM287.437 61.3686L294.874 59.6566L307.255 67.2242L304.978 57.3309L311.574 55.8128L315.579 73.2138L308.937 74.7427L295.61 66.7032L298.038 77.2514L291.442 78.7696L287.437 61.3686Z" fill="#FD4E22"></path> </svg> 